%TF.GenerationSoftware,KiCad,Pcbnew,(6.0.5)*%
%TF.CreationDate,2022-11-14T22:05:18-05:00*%
%TF.ProjectId,IMU_Board,494d555f-426f-4617-9264-2e6b69636164,rev?*%
%TF.SameCoordinates,Original*%
%TF.FileFunction,Copper,L2,Bot*%
%TF.FilePolarity,Positive*%
%FSLAX46Y46*%
G04 Gerber Fmt 4.6, Leading zero omitted, Abs format (unit mm)*
G04 Created by KiCad (PCBNEW (6.0.5)) date 2022-11-14 22:05:18*
%MOMM*%
%LPD*%
G01*
G04 APERTURE LIST*
%TA.AperFunction,ComponentPad*%
%ADD10O,1.700000X1.700000*%
%TD*%
%TA.AperFunction,ComponentPad*%
%ADD11R,1.700000X1.700000*%
%TD*%
%TA.AperFunction,ViaPad*%
%ADD12C,0.800000*%
%TD*%
%TA.AperFunction,Conductor*%
%ADD13C,0.127000*%
%TD*%
G04 APERTURE END LIST*
D10*
%TO.P,J1,8,Pin_8*%
%TO.N,VCC*%
X147100000Y-90220000D03*
%TO.P,J1,7,Pin_7*%
%TO.N,GND*%
X147100000Y-92760000D03*
%TO.P,J1,6,Pin_6*%
%TO.N,SCL*%
X147100000Y-95300000D03*
%TO.P,J1,5,Pin_5*%
%TO.N,SDA*%
X147100000Y-97840000D03*
%TO.P,J1,4,Pin_4*%
%TO.N,MAG_DRDY*%
X147100000Y-100380000D03*
%TO.P,J1,3,Pin_3*%
%TO.N,MAG_INT*%
X147100000Y-102920000D03*
%TO.P,J1,2,Pin_2*%
%TO.N,IMU_INT1*%
X147100000Y-105460000D03*
D11*
%TO.P,J1,1,Pin_1*%
%TO.N,IMU_INT2*%
X147100000Y-108000000D03*
%TD*%
D12*
%TO.N,GND*%
X131300000Y-96000000D03*
%TO.N,VCC*%
X128800000Y-102700000D03*
X125000000Y-102700000D03*
%TO.N,IMU_INT2*%
X115250000Y-99300000D03*
%TO.N,IMU_INT1*%
X113160160Y-94247500D03*
%TO.N,MAG_DRDY*%
X123800000Y-99017000D03*
%TO.N,MAG_INT*%
X127300000Y-99700000D03*
%TO.N,GND*%
X112500000Y-97962500D03*
X132000000Y-92760000D03*
%TO.N,SDA*%
X122600000Y-91750000D03*
X124100000Y-97500000D03*
%TO.N,SCL*%
X120900000Y-94600000D03*
X124600000Y-101439715D03*
%TD*%
D13*
%TO.N,SDA*%
X122600000Y-96000000D02*
X124100000Y-97500000D01*
X122600000Y-91750000D02*
X122600000Y-96000000D01*
%TO.N,GND*%
X147660000Y-92760000D02*
X147100000Y-92760000D01*
X148900000Y-94000000D02*
X147660000Y-92760000D01*
X148900000Y-95600000D02*
X148900000Y-94000000D01*
X147900000Y-96600000D02*
X148900000Y-95600000D01*
X131900000Y-96600000D02*
X147900000Y-96600000D01*
X131300000Y-96000000D02*
X131900000Y-96600000D01*
%TO.N,MAG_INT*%
X130520000Y-102920000D02*
X127300000Y-99700000D01*
X147100000Y-102920000D02*
X130520000Y-102920000D01*
%TO.N,VCC*%
X125000000Y-102700000D02*
X128800000Y-102700000D01*
%TO.N,MAG_DRDY*%
X128309999Y-96809999D02*
X131880000Y-100380000D01*
X123800000Y-99017000D02*
X126007001Y-96809999D01*
X126007001Y-96809999D02*
X128309999Y-96809999D01*
X131880000Y-100380000D02*
X147100000Y-100380000D01*
%TO.N,SCL*%
X123539715Y-101439715D02*
X124600000Y-101439715D01*
X120900000Y-98800000D02*
X123539715Y-101439715D01*
X120900000Y-94600000D02*
X120900000Y-98800000D01*
X120900000Y-90900000D02*
X120900000Y-94600000D01*
X121400000Y-90400000D02*
X120900000Y-90900000D01*
X127700000Y-90400000D02*
X121400000Y-90400000D01*
X132600000Y-95300000D02*
X127700000Y-90400000D01*
X147100000Y-95300000D02*
X132600000Y-95300000D01*
%TO.N,SDA*%
X132040000Y-97840000D02*
X147100000Y-97840000D01*
X125950000Y-91750000D02*
X132040000Y-97840000D01*
X122600000Y-91750000D02*
X125950000Y-91750000D01*
%TO.N,IMU_INT2*%
X123950000Y-108000000D02*
X147100000Y-108000000D01*
X115250000Y-99300000D02*
X123950000Y-108000000D01*
%TO.N,IMU_INT1*%
X124360000Y-105460000D02*
X147100000Y-105460000D01*
X124112660Y-105212660D02*
X124360000Y-105460000D01*
X124112660Y-105200000D02*
X124112660Y-105212660D01*
X113160160Y-94247500D02*
X124112660Y-105200000D01*
%TO.N,GND*%
X132000000Y-92760000D02*
X147100000Y-92760000D01*
X129040000Y-89800000D02*
X132000000Y-92760000D01*
X113400000Y-89800000D02*
X129040000Y-89800000D01*
X112500000Y-97962500D02*
X112500000Y-90700000D01*
X112500000Y-90700000D02*
X113400000Y-89800000D01*
X131960000Y-92760000D02*
X132000000Y-92760000D01*
%TD*%
M02*
