%TF.GenerationSoftware,KiCad,Pcbnew,(6.0.5)*%
%TF.CreationDate,2022-11-14T00:11:07-05:00*%
%TF.ProjectId,IMU_Board,494d555f-426f-4617-9264-2e6b69636164,rev?*%
%TF.SameCoordinates,Original*%
%TF.FileFunction,Soldermask,Top*%
%TF.FilePolarity,Negative*%
%FSLAX46Y46*%
G04 Gerber Fmt 4.6, Leading zero omitted, Abs format (unit mm)*
G04 Created by KiCad (PCBNEW (6.0.5)) date 2022-11-14 00:11:07*
%MOMM*%
%LPD*%
G01*
G04 APERTURE LIST*
G04 Aperture macros list*
%AMRoundRect*
0 Rectangle with rounded corners*
0 $1 Rounding radius*
0 $2 $3 $4 $5 $6 $7 $8 $9 X,Y pos of 4 corners*
0 Add a 4 corners polygon primitive as box body*
4,1,4,$2,$3,$4,$5,$6,$7,$8,$9,$2,$3,0*
0 Add four circle primitives for the rounded corners*
1,1,$1+$1,$2,$3*
1,1,$1+$1,$4,$5*
1,1,$1+$1,$6,$7*
1,1,$1+$1,$8,$9*
0 Add four rect primitives between the rounded corners*
20,1,$1+$1,$2,$3,$4,$5,0*
20,1,$1+$1,$4,$5,$6,$7,0*
20,1,$1+$1,$6,$7,$8,$9,0*
20,1,$1+$1,$8,$9,$2,$3,0*%
%AMFreePoly0*
4,1,22,0.550000,-0.750000,0.000000,-0.750000,0.000000,-0.745033,-0.079941,-0.743568,-0.215256,-0.701293,-0.333266,-0.622738,-0.424486,-0.514219,-0.481581,-0.384460,-0.499164,-0.250000,-0.500000,-0.250000,-0.500000,0.250000,-0.499164,0.250000,-0.499963,0.256109,-0.478152,0.396186,-0.417904,0.524511,-0.324060,0.630769,-0.204165,0.706417,-0.067858,0.745374,0.000000,0.744959,0.000000,0.750000,
0.550000,0.750000,0.550000,-0.750000,0.550000,-0.750000,$1*%
%AMFreePoly1*
4,1,20,0.000000,0.744959,0.073905,0.744508,0.209726,0.703889,0.328688,0.626782,0.421226,0.519385,0.479903,0.390333,0.500000,0.250000,0.500000,-0.250000,0.499851,-0.262216,0.476331,-0.402017,0.414519,-0.529596,0.319384,-0.634700,0.198574,-0.708877,0.061801,-0.746166,0.000000,-0.745033,0.000000,-0.750000,-0.550000,-0.750000,-0.550000,0.750000,0.000000,0.750000,0.000000,0.744959,
0.000000,0.744959,$1*%
G04 Aperture macros list end*
%ADD10C,3.200000*%
%ADD11R,0.576580X0.351536*%
%ADD12R,0.351536X0.576580*%
%ADD13C,0.152400*%
%ADD14FreePoly0,270.000000*%
%ADD15R,1.500000X1.000000*%
%ADD16FreePoly1,270.000000*%
%ADD17RoundRect,0.250000X-0.412500X-0.650000X0.412500X-0.650000X0.412500X0.650000X-0.412500X0.650000X0*%
%ADD18R,1.700000X1.700000*%
%ADD19O,1.700000X1.700000*%
%ADD20RoundRect,0.250000X0.412500X0.650000X-0.412500X0.650000X-0.412500X-0.650000X0.412500X-0.650000X0*%
%ADD21FreePoly0,0.000000*%
%ADD22R,1.000000X1.500000*%
%ADD23FreePoly1,0.000000*%
%ADD24RoundRect,0.250000X0.400000X0.625000X-0.400000X0.625000X-0.400000X-0.625000X0.400000X-0.625000X0*%
%ADD25RoundRect,0.250000X0.650000X-0.412500X0.650000X0.412500X-0.650000X0.412500X-0.650000X-0.412500X0*%
G04 APERTURE END LIST*
D10*
%TO.C,*%
X113000000Y-108000000D03*
%TD*%
D11*
%TO.C,U1*%
X120556300Y-96000001D03*
X120556300Y-96500000D03*
X120556300Y-96999999D03*
D12*
X120350001Y-97710300D03*
X119850000Y-97710300D03*
X119350000Y-97710300D03*
X118849999Y-97710300D03*
D11*
X118643700Y-96999999D03*
X118643700Y-96500000D03*
X118643700Y-96000001D03*
D12*
X118849999Y-95289700D03*
X119350000Y-95289700D03*
X119850000Y-95289700D03*
X120350001Y-95289700D03*
%TD*%
D13*
%TO.C,U3*%
X126066000Y-99866000D03*
X125500000Y-99866000D03*
X124934000Y-99866000D03*
X125783000Y-99583000D03*
X125217000Y-99583000D03*
X126066000Y-99300000D03*
X124934000Y-99300000D03*
X125783000Y-99017000D03*
X125217000Y-99017000D03*
X126066000Y-98734000D03*
X125500000Y-98734000D03*
X124934000Y-98734000D03*
%TD*%
D14*
%TO.C,BMM_ADDR2*%
X125300000Y-103600000D03*
D15*
X125300000Y-104900000D03*
D16*
X125300000Y-106200000D03*
%TD*%
D10*
%TO.C,*%
X113000000Y-90000000D03*
%TD*%
D14*
%TO.C,BMM_ADDR1*%
X121900000Y-103600000D03*
D15*
X121900000Y-104900000D03*
D16*
X121900000Y-106200000D03*
%TD*%
D17*
%TO.C,C3*%
X128837500Y-100900000D03*
X131962500Y-100900000D03*
%TD*%
D18*
%TO.C,J1*%
X137200000Y-104450000D03*
D19*
X137200000Y-101910000D03*
X137200000Y-99370000D03*
X137200000Y-96830000D03*
X137200000Y-94290000D03*
X137200000Y-91750000D03*
%TD*%
D20*
%TO.C,C4*%
X117762500Y-101100000D03*
X114637500Y-101100000D03*
%TD*%
D21*
%TO.C,IMU_ADDR1*%
X117600000Y-91800000D03*
D22*
X118900000Y-91800000D03*
D23*
X120200000Y-91800000D03*
%TD*%
D24*
%TO.C,R2*%
X128150000Y-94600000D03*
X125050000Y-94600000D03*
%TD*%
%TO.C,R1*%
X128150000Y-91750000D03*
X125050000Y-91750000D03*
%TD*%
D25*
%TO.C,C2*%
X114900000Y-97962500D03*
X114900000Y-94837500D03*
%TD*%
D17*
%TO.C,C1*%
X128875000Y-98000000D03*
X132000000Y-98000000D03*
%TD*%
M02*
