M48
; DRILL file {KiCad (6.0.5)} date Mon Nov 14 02:59:22 2022
; FORMAT={-:-/ absolute / metric / decimal}
; #@! TF.CreationDate,2022-11-14T02:59:22-05:00
; #@! TF.GenerationSoftware,Kicad,Pcbnew,(6.0.5)
; #@! TF.FileFunction,MixedPlating,1,2
FMAT,2
METRIC
; #@! TA.AperFunction,Plated,PTH,ViaDrill
T1C0.400
; #@! TA.AperFunction,Plated,PTH,ComponentDrill
T2C1.000
; #@! TA.AperFunction,NonPlated,NPTH,ComponentDrill
T3C3.200
%
G90
G05
T1
X112.5Y-97.962
X113.16Y-94.248
X115.25Y-99.3
X122.6Y-91.75
X123.1Y-94.6
X123.8Y-98.0
X123.8Y-99.017
X125.193Y-101.44
X126.5Y-97.6
X126.8Y-101.2
X127.4Y-99.0
X132.0Y-94.29
X134.6Y-96.83
X134.6Y-99.37
X134.6Y-101.91
X134.6Y-104.45
T2
X137.2Y-91.75
X137.2Y-94.29
X137.2Y-96.83
X137.2Y-99.37
X137.2Y-101.91
X137.2Y-104.45
T3
X106.0Y-90.0
X106.0Y-109.0
T0
M30
