M48
; DRILL file {KiCad (6.0.5)} date Mon Nov 14 00:14:54 2022
; FORMAT={-:-/ absolute / metric / decimal}
; #@! TF.CreationDate,2022-11-14T00:14:54-05:00
; #@! TF.GenerationSoftware,Kicad,Pcbnew,(6.0.5)
; #@! TF.FileFunction,MixedPlating,1,2
FMAT,2
METRIC
; #@! TA.AperFunction,Plated,PTH,ViaDrill
T1C0.400
; #@! TA.AperFunction,Plated,PTH,ComponentDrill
T2C1.000
; #@! TA.AperFunction,NonPlated,NPTH,ComponentDrill
T3C3.200
%
G90
G05
T1
X116.7Y-97.962
X117.36Y-94.248
X119.3Y-99.3
X120.0Y-104.9
X122.6Y-91.75
X123.1Y-94.6
X123.8Y-98.0
X123.8Y-99.017
X125.5Y-101.2
X127.128Y-98.772
X127.3Y-99.8
X132.0Y-94.29
X134.6Y-96.83
X134.6Y-99.37
X134.6Y-101.91
X134.6Y-104.45
T2
X137.2Y-91.75
X137.2Y-94.29
X137.2Y-96.83
X137.2Y-99.37
X137.2Y-101.91
X137.2Y-104.45
T3
X113.0Y-90.0
X113.0Y-108.0
T0
M30
