%TF.GenerationSoftware,KiCad,Pcbnew,(6.0.5)*%
%TF.CreationDate,2022-11-14T00:11:07-05:00*%
%TF.ProjectId,IMU_Board,494d555f-426f-4617-9264-2e6b69636164,rev?*%
%TF.SameCoordinates,Original*%
%TF.FileFunction,Copper,L2,Bot*%
%TF.FilePolarity,Positive*%
%FSLAX46Y46*%
G04 Gerber Fmt 4.6, Leading zero omitted, Abs format (unit mm)*
G04 Created by KiCad (PCBNEW (6.0.5)) date 2022-11-14 00:11:07*
%MOMM*%
%LPD*%
G01*
G04 APERTURE LIST*
%TA.AperFunction,ComponentPad*%
%ADD10R,1.700000X1.700000*%
%TD*%
%TA.AperFunction,ComponentPad*%
%ADD11O,1.700000X1.700000*%
%TD*%
%TA.AperFunction,ViaPad*%
%ADD12C,0.800000*%
%TD*%
%TA.AperFunction,Conductor*%
%ADD13C,0.127000*%
%TD*%
G04 APERTURE END LIST*
D10*
%TO.P,J1,1,Pin_1*%
%TO.N,IMU_INT2*%
X137200000Y-104450000D03*
D11*
%TO.P,J1,2,Pin_2*%
%TO.N,IMU_INT1*%
X137200000Y-101910000D03*
%TO.P,J1,3,Pin_3*%
%TO.N,MAG_INT*%
X137200000Y-99370000D03*
%TO.P,J1,4,Pin_4*%
%TO.N,MAG_DRDY*%
X137200000Y-96830000D03*
%TO.P,J1,5,Pin_5*%
%TO.N,GND*%
X137200000Y-94290000D03*
%TO.P,J1,6,Pin_6*%
%TO.N,VCC*%
X137200000Y-91750000D03*
%TD*%
D12*
%TO.N,IMU_INT2*%
X119300000Y-99300000D03*
X134600000Y-104450000D03*
%TO.N,IMU_INT1*%
X134600000Y-101910000D03*
X117360160Y-94247500D03*
%TO.N,MAG_DRDY*%
X134600000Y-96830000D03*
X123800000Y-99017000D03*
%TO.N,MAG_INT*%
X134600000Y-99370000D03*
X127127915Y-98772085D03*
%TO.N,GND*%
X116700000Y-97962500D03*
X132000000Y-94290000D03*
%TO.N,/SDA*%
X122600000Y-91750000D03*
X123800000Y-98000000D03*
%TO.N,/SCL*%
X123100000Y-94600000D03*
X125500000Y-101200000D03*
%TO.N,Net-(JP_BMM2-Pad2)*%
X127300000Y-99800000D03*
X120000000Y-104900000D03*
%TD*%
D13*
%TO.N,MAG_DRDY*%
X124183000Y-99017000D02*
X126370000Y-96830000D01*
X123800000Y-99017000D02*
X124183000Y-99017000D01*
X126370000Y-96830000D02*
X134600000Y-96830000D01*
%TO.N,IMU_INT2*%
X124450000Y-104450000D02*
X119300000Y-99300000D01*
X134600000Y-104450000D02*
X124450000Y-104450000D01*
%TO.N,IMU_INT1*%
X134600000Y-101910000D02*
X125022660Y-101910000D01*
X125022660Y-101910000D02*
X117360160Y-94247500D01*
%TO.N,MAG_INT*%
X134500000Y-99400000D02*
X133700000Y-98600000D01*
X127300000Y-98600000D02*
X127127915Y-98772085D01*
X133700000Y-98600000D02*
X127300000Y-98600000D01*
%TO.N,GND*%
X132000000Y-90700000D02*
X132000000Y-94290000D01*
X117600000Y-89800000D02*
X131100000Y-89800000D01*
X137200000Y-94290000D02*
X132000000Y-94290000D01*
X116700000Y-97962500D02*
X116700000Y-90700000D01*
X131100000Y-89800000D02*
X132000000Y-90700000D01*
X116700000Y-90700000D02*
X117600000Y-89800000D01*
%TO.N,/SDA*%
X122600000Y-91750000D02*
X122600000Y-92600000D01*
X123800000Y-93800000D02*
X123800000Y-98000000D01*
X122600000Y-92600000D02*
X123800000Y-93800000D01*
%TO.N,/SCL*%
X123100000Y-94600000D02*
X123100000Y-99300000D01*
X123100000Y-99300000D02*
X125000000Y-101200000D01*
X125000000Y-101200000D02*
X125500000Y-101200000D01*
%TO.N,Net-(JP_BMM2-Pad2)*%
X133700000Y-106000000D02*
X132600000Y-104900000D01*
X128369989Y-100869989D02*
X137630788Y-100869989D01*
X127300000Y-99800000D02*
X128369989Y-100869989D01*
X132600000Y-104900000D02*
X120000000Y-104900000D01*
X137630788Y-100869989D02*
X138240011Y-101479212D01*
X138240011Y-105490011D02*
X137730022Y-106000000D01*
X138240011Y-101479212D02*
X138240011Y-105490011D01*
X137730022Y-106000000D02*
X133700000Y-106000000D01*
%TD*%
M02*
