%TF.GenerationSoftware,KiCad,Pcbnew,(6.0.5)*%
%TF.CreationDate,2022-11-14T22:05:18-05:00*%
%TF.ProjectId,IMU_Board,494d555f-426f-4617-9264-2e6b69636164,rev?*%
%TF.SameCoordinates,Original*%
%TF.FileFunction,Legend,Top*%
%TF.FilePolarity,Positive*%
%FSLAX46Y46*%
G04 Gerber Fmt 4.6, Leading zero omitted, Abs format (unit mm)*
G04 Created by KiCad (PCBNEW (6.0.5)) date 2022-11-14 22:05:18*
%MOMM*%
%LPD*%
G01*
G04 APERTURE LIST*
%ADD10C,0.150000*%
%ADD11C,0.050000*%
%ADD12C,0.120000*%
%ADD13C,0.100000*%
G04 APERTURE END LIST*
D10*
X141283452Y-98244761D02*
X141426309Y-98292380D01*
X141664404Y-98292380D01*
X141759642Y-98244761D01*
X141807261Y-98197142D01*
X141854880Y-98101904D01*
X141854880Y-98006666D01*
X141807261Y-97911428D01*
X141759642Y-97863809D01*
X141664404Y-97816190D01*
X141473928Y-97768571D01*
X141378690Y-97720952D01*
X141331071Y-97673333D01*
X141283452Y-97578095D01*
X141283452Y-97482857D01*
X141331071Y-97387619D01*
X141378690Y-97340000D01*
X141473928Y-97292380D01*
X141712023Y-97292380D01*
X141854880Y-97340000D01*
X142283452Y-98292380D02*
X142283452Y-97292380D01*
X142521547Y-97292380D01*
X142664404Y-97340000D01*
X142759642Y-97435238D01*
X142807261Y-97530476D01*
X142854880Y-97720952D01*
X142854880Y-97863809D01*
X142807261Y-98054285D01*
X142759642Y-98149523D01*
X142664404Y-98244761D01*
X142521547Y-98292380D01*
X142283452Y-98292380D01*
X143235833Y-98006666D02*
X143712023Y-98006666D01*
X143140595Y-98292380D02*
X143473928Y-97292380D01*
X143807261Y-98292380D01*
X141331071Y-95704761D02*
X141473928Y-95752380D01*
X141712023Y-95752380D01*
X141807261Y-95704761D01*
X141854880Y-95657142D01*
X141902500Y-95561904D01*
X141902500Y-95466666D01*
X141854880Y-95371428D01*
X141807261Y-95323809D01*
X141712023Y-95276190D01*
X141521547Y-95228571D01*
X141426309Y-95180952D01*
X141378690Y-95133333D01*
X141331071Y-95038095D01*
X141331071Y-94942857D01*
X141378690Y-94847619D01*
X141426309Y-94800000D01*
X141521547Y-94752380D01*
X141759642Y-94752380D01*
X141902500Y-94800000D01*
X142902500Y-95657142D02*
X142854880Y-95704761D01*
X142712023Y-95752380D01*
X142616785Y-95752380D01*
X142473928Y-95704761D01*
X142378690Y-95609523D01*
X142331071Y-95514285D01*
X142283452Y-95323809D01*
X142283452Y-95180952D01*
X142331071Y-94990476D01*
X142378690Y-94895238D01*
X142473928Y-94800000D01*
X142616785Y-94752380D01*
X142712023Y-94752380D01*
X142854880Y-94800000D01*
X142902500Y-94847619D01*
X143807261Y-95752380D02*
X143331071Y-95752380D01*
X143331071Y-94752380D01*
X138092976Y-103372380D02*
X138092976Y-102372380D01*
X138426309Y-103086666D01*
X138759642Y-102372380D01*
X138759642Y-103372380D01*
X139188214Y-103086666D02*
X139664404Y-103086666D01*
X139092976Y-103372380D02*
X139426309Y-102372380D01*
X139759642Y-103372380D01*
X140616785Y-102420000D02*
X140521547Y-102372380D01*
X140378690Y-102372380D01*
X140235833Y-102420000D01*
X140140595Y-102515238D01*
X140092976Y-102610476D01*
X140045357Y-102800952D01*
X140045357Y-102943809D01*
X140092976Y-103134285D01*
X140140595Y-103229523D01*
X140235833Y-103324761D01*
X140378690Y-103372380D01*
X140473928Y-103372380D01*
X140616785Y-103324761D01*
X140664404Y-103277142D01*
X140664404Y-102943809D01*
X140473928Y-102943809D01*
X140854880Y-103467619D02*
X141616785Y-103467619D01*
X141854880Y-103372380D02*
X141854880Y-102372380D01*
X142331071Y-103372380D02*
X142331071Y-102372380D01*
X142902500Y-103372380D01*
X142902500Y-102372380D01*
X143235833Y-102372380D02*
X143807261Y-102372380D01*
X143521547Y-103372380D02*
X143521547Y-102372380D01*
X136521547Y-100832380D02*
X136521547Y-99832380D01*
X136854880Y-100546666D01*
X137188214Y-99832380D01*
X137188214Y-100832380D01*
X137616785Y-100546666D02*
X138092976Y-100546666D01*
X137521547Y-100832380D02*
X137854880Y-99832380D01*
X138188214Y-100832380D01*
X139045357Y-99880000D02*
X138950119Y-99832380D01*
X138807261Y-99832380D01*
X138664404Y-99880000D01*
X138569166Y-99975238D01*
X138521547Y-100070476D01*
X138473928Y-100260952D01*
X138473928Y-100403809D01*
X138521547Y-100594285D01*
X138569166Y-100689523D01*
X138664404Y-100784761D01*
X138807261Y-100832380D01*
X138902500Y-100832380D01*
X139045357Y-100784761D01*
X139092976Y-100737142D01*
X139092976Y-100403809D01*
X138902500Y-100403809D01*
X139283452Y-100927619D02*
X140045357Y-100927619D01*
X140283452Y-100832380D02*
X140283452Y-99832380D01*
X140521547Y-99832380D01*
X140664404Y-99880000D01*
X140759642Y-99975238D01*
X140807261Y-100070476D01*
X140854880Y-100260952D01*
X140854880Y-100403809D01*
X140807261Y-100594285D01*
X140759642Y-100689523D01*
X140664404Y-100784761D01*
X140521547Y-100832380D01*
X140283452Y-100832380D01*
X141854880Y-100832380D02*
X141521547Y-100356190D01*
X141283452Y-100832380D02*
X141283452Y-99832380D01*
X141664404Y-99832380D01*
X141759642Y-99880000D01*
X141807261Y-99927619D01*
X141854880Y-100022857D01*
X141854880Y-100165714D01*
X141807261Y-100260952D01*
X141759642Y-100308571D01*
X141664404Y-100356190D01*
X141283452Y-100356190D01*
X142283452Y-100832380D02*
X142283452Y-99832380D01*
X142521547Y-99832380D01*
X142664404Y-99880000D01*
X142759642Y-99975238D01*
X142807261Y-100070476D01*
X142854880Y-100260952D01*
X142854880Y-100403809D01*
X142807261Y-100594285D01*
X142759642Y-100689523D01*
X142664404Y-100784761D01*
X142521547Y-100832380D01*
X142283452Y-100832380D01*
X143473928Y-100356190D02*
X143473928Y-100832380D01*
X143140595Y-99832380D02*
X143473928Y-100356190D01*
X143807261Y-99832380D01*
X137473928Y-105912380D02*
X137473928Y-104912380D01*
X137950119Y-105912380D02*
X137950119Y-104912380D01*
X138283452Y-105626666D01*
X138616785Y-104912380D01*
X138616785Y-105912380D01*
X139092976Y-104912380D02*
X139092976Y-105721904D01*
X139140595Y-105817142D01*
X139188214Y-105864761D01*
X139283452Y-105912380D01*
X139473928Y-105912380D01*
X139569166Y-105864761D01*
X139616785Y-105817142D01*
X139664404Y-105721904D01*
X139664404Y-104912380D01*
X139902500Y-106007619D02*
X140664404Y-106007619D01*
X140902500Y-105912380D02*
X140902500Y-104912380D01*
X141378690Y-105912380D02*
X141378690Y-104912380D01*
X141950119Y-105912380D01*
X141950119Y-104912380D01*
X142283452Y-104912380D02*
X142854880Y-104912380D01*
X142569166Y-105912380D02*
X142569166Y-104912380D01*
X143712023Y-105912380D02*
X143140595Y-105912380D01*
X143426309Y-105912380D02*
X143426309Y-104912380D01*
X143331071Y-105055238D01*
X143235833Y-105150476D01*
X143140595Y-105198095D01*
X104240357Y-103773904D02*
X104340357Y-102973904D01*
X104716547Y-103773904D02*
X104816547Y-102973904D01*
X105078452Y-103545333D01*
X105483214Y-102973904D01*
X105383214Y-103773904D01*
X105959404Y-102973904D02*
X105878452Y-103621523D01*
X105916547Y-103697714D01*
X105959404Y-103735809D01*
X106049880Y-103773904D01*
X106240357Y-103773904D01*
X106340357Y-103735809D01*
X106392738Y-103697714D01*
X106449880Y-103621523D01*
X106530833Y-102973904D01*
X106659404Y-103850095D02*
X107421309Y-103850095D01*
X108240357Y-103773904D02*
X107954642Y-103392952D01*
X107668928Y-103773904D02*
X107768928Y-102973904D01*
X108149880Y-102973904D01*
X108240357Y-103012000D01*
X108283214Y-103050095D01*
X108321309Y-103126285D01*
X108307023Y-103240571D01*
X108249880Y-103316761D01*
X108197500Y-103354857D01*
X108097500Y-103392952D01*
X107716547Y-103392952D01*
X108721309Y-103354857D02*
X109054642Y-103354857D01*
X109145119Y-103773904D02*
X108668928Y-103773904D01*
X108768928Y-102973904D01*
X109245119Y-102973904D01*
X109530833Y-102973904D02*
X109764166Y-103773904D01*
X110197500Y-102973904D01*
X110954642Y-103773904D02*
X110383214Y-103773904D01*
X110668928Y-103773904D02*
X110768928Y-102973904D01*
X110659404Y-103088190D01*
X110554642Y-103164380D01*
X110454642Y-103202476D01*
X111392738Y-103697714D02*
X111435595Y-103735809D01*
X111383214Y-103773904D01*
X111340357Y-103735809D01*
X111392738Y-103697714D01*
X111383214Y-103773904D01*
X111902261Y-103050095D02*
X111954642Y-103012000D01*
X112054642Y-102973904D01*
X112292738Y-102973904D01*
X112383214Y-103012000D01*
X112426071Y-103050095D01*
X112464166Y-103126285D01*
X112454642Y-103202476D01*
X112392738Y-103316761D01*
X111764166Y-103773904D01*
X112383214Y-103773904D01*
X104240357Y-105061904D02*
X104340357Y-104261904D01*
X104716547Y-105061904D02*
X104816547Y-104261904D01*
X105078452Y-104833333D01*
X105483214Y-104261904D01*
X105383214Y-105061904D01*
X105959404Y-104261904D02*
X105878452Y-104909523D01*
X105916547Y-104985714D01*
X105959404Y-105023809D01*
X106049880Y-105061904D01*
X106240357Y-105061904D01*
X106340357Y-105023809D01*
X106392738Y-104985714D01*
X106449880Y-104909523D01*
X106530833Y-104261904D01*
X106916547Y-104985714D02*
X106959404Y-105023809D01*
X106907023Y-105061904D01*
X106864166Y-105023809D01*
X106916547Y-104985714D01*
X106907023Y-105061904D01*
X106968928Y-104566666D02*
X107011785Y-104604761D01*
X106959404Y-104642857D01*
X106916547Y-104604761D01*
X106968928Y-104566666D01*
X106959404Y-104642857D01*
X107621309Y-104680952D02*
X107573690Y-105061904D01*
X107340357Y-104261904D02*
X107621309Y-104680952D01*
X108007023Y-104261904D01*
X108307023Y-104528571D02*
X109040357Y-104757142D01*
X108249880Y-104985714D01*
X109530833Y-105023809D02*
X109526071Y-105061904D01*
X109468928Y-105138095D01*
X109416547Y-105176190D01*
X109959404Y-104261904D02*
X110626071Y-104261904D01*
X109859404Y-105061904D01*
X110526071Y-105061904D01*
X111154642Y-105366666D02*
X111111785Y-105328571D01*
X111030833Y-105214285D01*
X110992738Y-105138095D01*
X110959404Y-105023809D01*
X110935595Y-104833333D01*
X110954642Y-104680952D01*
X111026071Y-104490476D01*
X111087976Y-104376190D01*
X111145119Y-104300000D01*
X111254642Y-104185714D01*
X111307023Y-104147619D01*
X111673690Y-104261904D02*
X111592738Y-104909523D01*
X111630833Y-104985714D01*
X111673690Y-105023809D01*
X111764166Y-105061904D01*
X111954642Y-105061904D01*
X112054642Y-105023809D01*
X112107023Y-104985714D01*
X112164166Y-104909523D01*
X112245119Y-104261904D01*
X112487976Y-105366666D02*
X112540357Y-105328571D01*
X112649880Y-105214285D01*
X112707023Y-105138095D01*
X112768928Y-105023809D01*
X112840357Y-104833333D01*
X112859404Y-104680952D01*
X112835595Y-104490476D01*
X112802261Y-104376190D01*
X112764166Y-104300000D01*
X112683214Y-104185714D01*
X112640357Y-104147619D01*
X104240357Y-106349904D02*
X104340357Y-105549904D01*
X104602261Y-106121333D01*
X105007023Y-105549904D01*
X104907023Y-106349904D01*
X105364166Y-106121333D02*
X105840357Y-106121333D01*
X105240357Y-106349904D02*
X105673690Y-105549904D01*
X105907023Y-106349904D01*
X106859404Y-105588000D02*
X106768928Y-105549904D01*
X106626071Y-105549904D01*
X106478452Y-105588000D01*
X106373690Y-105664190D01*
X106316547Y-105740380D01*
X106249880Y-105892761D01*
X106235595Y-106007047D01*
X106264166Y-106159428D01*
X106302261Y-106235619D01*
X106387976Y-106311809D01*
X106526071Y-106349904D01*
X106621309Y-106349904D01*
X106768928Y-106311809D01*
X106821309Y-106273714D01*
X106854642Y-106007047D01*
X106664166Y-106007047D01*
X107249880Y-106273714D02*
X107292738Y-106311809D01*
X107240357Y-106349904D01*
X107197500Y-106311809D01*
X107249880Y-106273714D01*
X107240357Y-106349904D01*
X107302261Y-105854666D02*
X107345119Y-105892761D01*
X107292738Y-105930857D01*
X107249880Y-105892761D01*
X107302261Y-105854666D01*
X107292738Y-105930857D01*
X107954642Y-105968952D02*
X107907023Y-106349904D01*
X107673690Y-105549904D02*
X107954642Y-105968952D01*
X108340357Y-105549904D01*
X109402261Y-105816571D02*
X108611785Y-106045142D01*
X109345119Y-106273714D01*
X109864166Y-106311809D02*
X109859404Y-106349904D01*
X109802261Y-106426095D01*
X109749880Y-106464190D01*
X110292738Y-105549904D02*
X110959404Y-105549904D01*
X110192738Y-106349904D01*
X110859404Y-106349904D01*
X111487976Y-106654666D02*
X111445119Y-106616571D01*
X111364166Y-106502285D01*
X111326071Y-106426095D01*
X111292738Y-106311809D01*
X111268928Y-106121333D01*
X111287976Y-105968952D01*
X111359404Y-105778476D01*
X111421309Y-105664190D01*
X111478452Y-105588000D01*
X111587976Y-105473714D01*
X111640357Y-105435619D01*
X111907023Y-106349904D02*
X112007023Y-105549904D01*
X112245119Y-105549904D01*
X112383214Y-105588000D01*
X112468928Y-105664190D01*
X112507023Y-105740380D01*
X112535595Y-105892761D01*
X112521309Y-106007047D01*
X112454642Y-106159428D01*
X112397500Y-106235619D01*
X112292738Y-106311809D01*
X112145119Y-106349904D01*
X111907023Y-106349904D01*
X112773690Y-106654666D02*
X112826071Y-106616571D01*
X112935595Y-106502285D01*
X112992738Y-106426095D01*
X113054642Y-106311809D01*
X113126071Y-106121333D01*
X113145119Y-105968952D01*
X113121309Y-105778476D01*
X113087976Y-105664190D01*
X113049880Y-105588000D01*
X112968928Y-105473714D01*
X112926071Y-105435619D01*
X141616785Y-92260000D02*
X141521547Y-92212380D01*
X141378690Y-92212380D01*
X141235833Y-92260000D01*
X141140595Y-92355238D01*
X141092976Y-92450476D01*
X141045357Y-92640952D01*
X141045357Y-92783809D01*
X141092976Y-92974285D01*
X141140595Y-93069523D01*
X141235833Y-93164761D01*
X141378690Y-93212380D01*
X141473928Y-93212380D01*
X141616785Y-93164761D01*
X141664404Y-93117142D01*
X141664404Y-92783809D01*
X141473928Y-92783809D01*
X142092976Y-93212380D02*
X142092976Y-92212380D01*
X142664404Y-93212380D01*
X142664404Y-92212380D01*
X143140595Y-93212380D02*
X143140595Y-92212380D01*
X143378690Y-92212380D01*
X143521547Y-92260000D01*
X143616785Y-92355238D01*
X143664404Y-92450476D01*
X143712023Y-92640952D01*
X143712023Y-92783809D01*
X143664404Y-92974285D01*
X143616785Y-93069523D01*
X143521547Y-93164761D01*
X143378690Y-93212380D01*
X143140595Y-93212380D01*
X137473928Y-108452380D02*
X137473928Y-107452380D01*
X137950119Y-108452380D02*
X137950119Y-107452380D01*
X138283452Y-108166666D01*
X138616785Y-107452380D01*
X138616785Y-108452380D01*
X139092976Y-107452380D02*
X139092976Y-108261904D01*
X139140595Y-108357142D01*
X139188214Y-108404761D01*
X139283452Y-108452380D01*
X139473928Y-108452380D01*
X139569166Y-108404761D01*
X139616785Y-108357142D01*
X139664404Y-108261904D01*
X139664404Y-107452380D01*
X139902500Y-108547619D02*
X140664404Y-108547619D01*
X140902500Y-108452380D02*
X140902500Y-107452380D01*
X141378690Y-108452380D02*
X141378690Y-107452380D01*
X141950119Y-108452380D01*
X141950119Y-107452380D01*
X142283452Y-107452380D02*
X142854880Y-107452380D01*
X142569166Y-108452380D02*
X142569166Y-107452380D01*
X143140595Y-107547619D02*
X143188214Y-107500000D01*
X143283452Y-107452380D01*
X143521547Y-107452380D01*
X143616785Y-107500000D01*
X143664404Y-107547619D01*
X143712023Y-107642857D01*
X143712023Y-107738095D01*
X143664404Y-107880952D01*
X143092976Y-108452380D01*
X143712023Y-108452380D01*
X140807261Y-89672380D02*
X141426309Y-89672380D01*
X141092976Y-90053333D01*
X141235833Y-90053333D01*
X141331071Y-90100952D01*
X141378690Y-90148571D01*
X141426309Y-90243809D01*
X141426309Y-90481904D01*
X141378690Y-90577142D01*
X141331071Y-90624761D01*
X141235833Y-90672380D01*
X140950119Y-90672380D01*
X140854880Y-90624761D01*
X140807261Y-90577142D01*
X141854880Y-90577142D02*
X141902500Y-90624761D01*
X141854880Y-90672380D01*
X141807261Y-90624761D01*
X141854880Y-90577142D01*
X141854880Y-90672380D01*
X142235833Y-89672380D02*
X142854880Y-89672380D01*
X142521547Y-90053333D01*
X142664404Y-90053333D01*
X142759642Y-90100952D01*
X142807261Y-90148571D01*
X142854880Y-90243809D01*
X142854880Y-90481904D01*
X142807261Y-90577142D01*
X142759642Y-90624761D01*
X142664404Y-90672380D01*
X142378690Y-90672380D01*
X142283452Y-90624761D01*
X142235833Y-90577142D01*
X143140595Y-89672380D02*
X143473928Y-90672380D01*
X143807261Y-89672380D01*
%TO.C,U3*%
X126900000Y-100052380D02*
X126900000Y-100290476D01*
X126661904Y-100195238D02*
X126900000Y-100290476D01*
X127138095Y-100195238D01*
X126757142Y-100480952D02*
X126900000Y-100290476D01*
X127042857Y-100480952D01*
%TO.C,J1*%
X146766666Y-109782380D02*
X146766666Y-110496666D01*
X146719047Y-110639523D01*
X146623809Y-110734761D01*
X146480952Y-110782380D01*
X146385714Y-110782380D01*
X147766666Y-110782380D02*
X147195238Y-110782380D01*
X147480952Y-110782380D02*
X147480952Y-109782380D01*
X147385714Y-109925238D01*
X147290476Y-110020476D01*
X147195238Y-110068095D01*
%TO.C,JP_BMM1*%
X114642857Y-109452380D02*
X114642857Y-110166666D01*
X114595238Y-110309523D01*
X114500000Y-110404761D01*
X114357142Y-110452380D01*
X114261904Y-110452380D01*
X115119047Y-110452380D02*
X115119047Y-109452380D01*
X115500000Y-109452380D01*
X115595238Y-109500000D01*
X115642857Y-109547619D01*
X115690476Y-109642857D01*
X115690476Y-109785714D01*
X115642857Y-109880952D01*
X115595238Y-109928571D01*
X115500000Y-109976190D01*
X115119047Y-109976190D01*
X115880952Y-110547619D02*
X116642857Y-110547619D01*
X117214285Y-109928571D02*
X117357142Y-109976190D01*
X117404761Y-110023809D01*
X117452380Y-110119047D01*
X117452380Y-110261904D01*
X117404761Y-110357142D01*
X117357142Y-110404761D01*
X117261904Y-110452380D01*
X116880952Y-110452380D01*
X116880952Y-109452380D01*
X117214285Y-109452380D01*
X117309523Y-109500000D01*
X117357142Y-109547619D01*
X117404761Y-109642857D01*
X117404761Y-109738095D01*
X117357142Y-109833333D01*
X117309523Y-109880952D01*
X117214285Y-109928571D01*
X116880952Y-109928571D01*
X117880952Y-110452380D02*
X117880952Y-109452380D01*
X118214285Y-110166666D01*
X118547619Y-109452380D01*
X118547619Y-110452380D01*
X119023809Y-110452380D02*
X119023809Y-109452380D01*
X119357142Y-110166666D01*
X119690476Y-109452380D01*
X119690476Y-110452380D01*
X120690476Y-110452380D02*
X120119047Y-110452380D01*
X120404761Y-110452380D02*
X120404761Y-109452380D01*
X120309523Y-109595238D01*
X120214285Y-109690476D01*
X120119047Y-109738095D01*
%TO.C,R7*%
X119833333Y-96832380D02*
X119500000Y-96356190D01*
X119261904Y-96832380D02*
X119261904Y-95832380D01*
X119642857Y-95832380D01*
X119738095Y-95880000D01*
X119785714Y-95927619D01*
X119833333Y-96022857D01*
X119833333Y-96165714D01*
X119785714Y-96260952D01*
X119738095Y-96308571D01*
X119642857Y-96356190D01*
X119261904Y-96356190D01*
X120166666Y-95832380D02*
X120833333Y-95832380D01*
X120404761Y-96832380D01*
%TO.C,*%
%TO.C,JP_BMM2*%
X130642857Y-109452380D02*
X130642857Y-110166666D01*
X130595238Y-110309523D01*
X130500000Y-110404761D01*
X130357142Y-110452380D01*
X130261904Y-110452380D01*
X131119047Y-110452380D02*
X131119047Y-109452380D01*
X131500000Y-109452380D01*
X131595238Y-109500000D01*
X131642857Y-109547619D01*
X131690476Y-109642857D01*
X131690476Y-109785714D01*
X131642857Y-109880952D01*
X131595238Y-109928571D01*
X131500000Y-109976190D01*
X131119047Y-109976190D01*
X131880952Y-110547619D02*
X132642857Y-110547619D01*
X133214285Y-109928571D02*
X133357142Y-109976190D01*
X133404761Y-110023809D01*
X133452380Y-110119047D01*
X133452380Y-110261904D01*
X133404761Y-110357142D01*
X133357142Y-110404761D01*
X133261904Y-110452380D01*
X132880952Y-110452380D01*
X132880952Y-109452380D01*
X133214285Y-109452380D01*
X133309523Y-109500000D01*
X133357142Y-109547619D01*
X133404761Y-109642857D01*
X133404761Y-109738095D01*
X133357142Y-109833333D01*
X133309523Y-109880952D01*
X133214285Y-109928571D01*
X132880952Y-109928571D01*
X133880952Y-110452380D02*
X133880952Y-109452380D01*
X134214285Y-110166666D01*
X134547619Y-109452380D01*
X134547619Y-110452380D01*
X135023809Y-110452380D02*
X135023809Y-109452380D01*
X135357142Y-110166666D01*
X135690476Y-109452380D01*
X135690476Y-110452380D01*
X136119047Y-109547619D02*
X136166666Y-109500000D01*
X136261904Y-109452380D01*
X136500000Y-109452380D01*
X136595238Y-109500000D01*
X136642857Y-109547619D01*
X136690476Y-109642857D01*
X136690476Y-109738095D01*
X136642857Y-109880952D01*
X136071428Y-110452380D01*
X136690476Y-110452380D01*
%TO.C,C3*%
X130233333Y-103157142D02*
X130185714Y-103204761D01*
X130042857Y-103252380D01*
X129947619Y-103252380D01*
X129804761Y-103204761D01*
X129709523Y-103109523D01*
X129661904Y-103014285D01*
X129614285Y-102823809D01*
X129614285Y-102680952D01*
X129661904Y-102490476D01*
X129709523Y-102395238D01*
X129804761Y-102300000D01*
X129947619Y-102252380D01*
X130042857Y-102252380D01*
X130185714Y-102300000D01*
X130233333Y-102347619D01*
X130566666Y-102252380D02*
X131185714Y-102252380D01*
X130852380Y-102633333D01*
X130995238Y-102633333D01*
X131090476Y-102680952D01*
X131138095Y-102728571D01*
X131185714Y-102823809D01*
X131185714Y-103061904D01*
X131138095Y-103157142D01*
X131090476Y-103204761D01*
X130995238Y-103252380D01*
X130709523Y-103252380D01*
X130614285Y-103204761D01*
X130566666Y-103157142D01*
%TO.C,U1*%
X116652380Y-94200000D02*
X116890476Y-94200000D01*
X116795238Y-94438095D02*
X116890476Y-94200000D01*
X116795238Y-93961904D01*
X117080952Y-94342857D02*
X116890476Y-94200000D01*
X117080952Y-94057142D01*
%TO.C,R4*%
X122733333Y-109752380D02*
X122400000Y-109276190D01*
X122161904Y-109752380D02*
X122161904Y-108752380D01*
X122542857Y-108752380D01*
X122638095Y-108800000D01*
X122685714Y-108847619D01*
X122733333Y-108942857D01*
X122733333Y-109085714D01*
X122685714Y-109180952D01*
X122638095Y-109228571D01*
X122542857Y-109276190D01*
X122161904Y-109276190D01*
X123590476Y-109085714D02*
X123590476Y-109752380D01*
X123352380Y-108704761D02*
X123114285Y-109419047D01*
X123733333Y-109419047D01*
%TO.C,C4*%
X114770833Y-102957142D02*
X114723214Y-103004761D01*
X114580357Y-103052380D01*
X114485119Y-103052380D01*
X114342261Y-103004761D01*
X114247023Y-102909523D01*
X114199404Y-102814285D01*
X114151785Y-102623809D01*
X114151785Y-102480952D01*
X114199404Y-102290476D01*
X114247023Y-102195238D01*
X114342261Y-102100000D01*
X114485119Y-102052380D01*
X114580357Y-102052380D01*
X114723214Y-102100000D01*
X114770833Y-102147619D01*
X115627976Y-102385714D02*
X115627976Y-103052380D01*
X115389880Y-102004761D02*
X115151785Y-102719047D01*
X115770833Y-102719047D01*
%TO.C,R3*%
X118422381Y-91516666D02*
X117946191Y-91850000D01*
X118422381Y-92088095D02*
X117422381Y-92088095D01*
X117422381Y-91707142D01*
X117470001Y-91611904D01*
X117517620Y-91564285D01*
X117612858Y-91516666D01*
X117755715Y-91516666D01*
X117850953Y-91564285D01*
X117898572Y-91611904D01*
X117946191Y-91707142D01*
X117946191Y-92088095D01*
X117422381Y-91183333D02*
X117422381Y-90564285D01*
X117803334Y-90897619D01*
X117803334Y-90754761D01*
X117850953Y-90659523D01*
X117898572Y-90611904D01*
X117993810Y-90564285D01*
X118231905Y-90564285D01*
X118327143Y-90611904D01*
X118374762Y-90659523D01*
X118422381Y-90754761D01*
X118422381Y-91040476D01*
X118374762Y-91135714D01*
X118327143Y-91183333D01*
%TO.C,JP_IMU1*%
X107952380Y-94047619D02*
X108666666Y-94047619D01*
X108809523Y-94095238D01*
X108904761Y-94190476D01*
X108952380Y-94333333D01*
X108952380Y-94428571D01*
X108952380Y-93571428D02*
X107952380Y-93571428D01*
X107952380Y-93190476D01*
X108000000Y-93095238D01*
X108047619Y-93047619D01*
X108142857Y-93000000D01*
X108285714Y-93000000D01*
X108380952Y-93047619D01*
X108428571Y-93095238D01*
X108476190Y-93190476D01*
X108476190Y-93571428D01*
X109047619Y-92809523D02*
X109047619Y-92047619D01*
X108952380Y-91809523D02*
X107952380Y-91809523D01*
X108952380Y-91333333D02*
X107952380Y-91333333D01*
X108666666Y-91000000D01*
X107952380Y-90666666D01*
X108952380Y-90666666D01*
X107952380Y-90190476D02*
X108761904Y-90190476D01*
X108857142Y-90142857D01*
X108904761Y-90095238D01*
X108952380Y-90000000D01*
X108952380Y-89809523D01*
X108904761Y-89714285D01*
X108857142Y-89666666D01*
X108761904Y-89619047D01*
X107952380Y-89619047D01*
X108952380Y-88619047D02*
X108952380Y-89190476D01*
X108952380Y-88904761D02*
X107952380Y-88904761D01*
X108095238Y-89000000D01*
X108190476Y-89095238D01*
X108238095Y-89190476D01*
%TO.C,R2*%
X126433333Y-96872380D02*
X126100000Y-96396190D01*
X125861904Y-96872380D02*
X125861904Y-95872380D01*
X126242857Y-95872380D01*
X126338095Y-95920000D01*
X126385714Y-95967619D01*
X126433333Y-96062857D01*
X126433333Y-96205714D01*
X126385714Y-96300952D01*
X126338095Y-96348571D01*
X126242857Y-96396190D01*
X125861904Y-96396190D01*
X126814285Y-95967619D02*
X126861904Y-95920000D01*
X126957142Y-95872380D01*
X127195238Y-95872380D01*
X127290476Y-95920000D01*
X127338095Y-95967619D01*
X127385714Y-96062857D01*
X127385714Y-96158095D01*
X127338095Y-96300952D01*
X126766666Y-96872380D01*
X127385714Y-96872380D01*
%TO.C,R1*%
X126533333Y-90352380D02*
X126200000Y-89876190D01*
X125961904Y-90352380D02*
X125961904Y-89352380D01*
X126342857Y-89352380D01*
X126438095Y-89400000D01*
X126485714Y-89447619D01*
X126533333Y-89542857D01*
X126533333Y-89685714D01*
X126485714Y-89780952D01*
X126438095Y-89828571D01*
X126342857Y-89876190D01*
X125961904Y-89876190D01*
X127485714Y-90352380D02*
X126914285Y-90352380D01*
X127200000Y-90352380D02*
X127200000Y-89352380D01*
X127104761Y-89495238D01*
X127009523Y-89590476D01*
X126914285Y-89638095D01*
%TO.C,C2*%
X109207142Y-96566666D02*
X109254761Y-96614285D01*
X109302380Y-96757142D01*
X109302380Y-96852380D01*
X109254761Y-96995238D01*
X109159523Y-97090476D01*
X109064285Y-97138095D01*
X108873809Y-97185714D01*
X108730952Y-97185714D01*
X108540476Y-97138095D01*
X108445238Y-97090476D01*
X108350000Y-96995238D01*
X108302380Y-96852380D01*
X108302380Y-96757142D01*
X108350000Y-96614285D01*
X108397619Y-96566666D01*
X108397619Y-96185714D02*
X108350000Y-96138095D01*
X108302380Y-96042857D01*
X108302380Y-95804761D01*
X108350000Y-95709523D01*
X108397619Y-95661904D01*
X108492857Y-95614285D01*
X108588095Y-95614285D01*
X108730952Y-95661904D01*
X109302380Y-96233333D01*
X109302380Y-95614285D01*
%TO.C,R5*%
X128133333Y-109852380D02*
X127800000Y-109376190D01*
X127561904Y-109852380D02*
X127561904Y-108852380D01*
X127942857Y-108852380D01*
X128038095Y-108900000D01*
X128085714Y-108947619D01*
X128133333Y-109042857D01*
X128133333Y-109185714D01*
X128085714Y-109280952D01*
X128038095Y-109328571D01*
X127942857Y-109376190D01*
X127561904Y-109376190D01*
X129038095Y-108852380D02*
X128561904Y-108852380D01*
X128514285Y-109328571D01*
X128561904Y-109280952D01*
X128657142Y-109233333D01*
X128895238Y-109233333D01*
X128990476Y-109280952D01*
X129038095Y-109328571D01*
X129085714Y-109423809D01*
X129085714Y-109661904D01*
X129038095Y-109757142D01*
X128990476Y-109804761D01*
X128895238Y-109852380D01*
X128657142Y-109852380D01*
X128561904Y-109804761D01*
X128514285Y-109757142D01*
%TO.C,*%
%TO.C,R6*%
X125333333Y-109752380D02*
X125000000Y-109276190D01*
X124761904Y-109752380D02*
X124761904Y-108752380D01*
X125142857Y-108752380D01*
X125238095Y-108800000D01*
X125285714Y-108847619D01*
X125333333Y-108942857D01*
X125333333Y-109085714D01*
X125285714Y-109180952D01*
X125238095Y-109228571D01*
X125142857Y-109276190D01*
X124761904Y-109276190D01*
X126190476Y-108752380D02*
X126000000Y-108752380D01*
X125904761Y-108800000D01*
X125857142Y-108847619D01*
X125761904Y-108990476D01*
X125714285Y-109180952D01*
X125714285Y-109561904D01*
X125761904Y-109657142D01*
X125809523Y-109704761D01*
X125904761Y-109752380D01*
X126095238Y-109752380D01*
X126190476Y-109704761D01*
X126238095Y-109657142D01*
X126285714Y-109561904D01*
X126285714Y-109323809D01*
X126238095Y-109228571D01*
X126190476Y-109180952D01*
X126095238Y-109133333D01*
X125904761Y-109133333D01*
X125809523Y-109180952D01*
X125761904Y-109228571D01*
X125714285Y-109323809D01*
%TO.C,C1*%
X130270833Y-96507142D02*
X130223214Y-96554761D01*
X130080357Y-96602380D01*
X129985119Y-96602380D01*
X129842261Y-96554761D01*
X129747023Y-96459523D01*
X129699404Y-96364285D01*
X129651785Y-96173809D01*
X129651785Y-96030952D01*
X129699404Y-95840476D01*
X129747023Y-95745238D01*
X129842261Y-95650000D01*
X129985119Y-95602380D01*
X130080357Y-95602380D01*
X130223214Y-95650000D01*
X130270833Y-95697619D01*
X131223214Y-96602380D02*
X130651785Y-96602380D01*
X130937500Y-96602380D02*
X130937500Y-95602380D01*
X130842261Y-95745238D01*
X130747023Y-95840476D01*
X130651785Y-95888095D01*
D11*
%TO.C,U3*%
X124431000Y-98231000D02*
X126499000Y-98231000D01*
X126499000Y-98231000D02*
X126499000Y-100299000D01*
X126499000Y-100299000D02*
X124431000Y-100299000D01*
X124431000Y-100299000D02*
X124431000Y-98231000D01*
D12*
%TO.C,J1*%
X148430000Y-109330000D02*
X147100000Y-109330000D01*
X145770000Y-106730000D02*
X145770000Y-88890000D01*
X148430000Y-108000000D02*
X148430000Y-109330000D01*
X148430000Y-106730000D02*
X148430000Y-88890000D01*
X148430000Y-88890000D02*
X145770000Y-88890000D01*
X148430000Y-106730000D02*
X145770000Y-106730000D01*
%TO.C,JP_BMM1*%
X118100000Y-104800000D02*
X117800000Y-105100000D01*
X118300000Y-107400000D02*
X118300000Y-104600000D01*
X119000000Y-103950000D02*
X119600000Y-103950000D01*
X117800000Y-104500000D02*
X117800000Y-105100000D01*
X118100000Y-104800000D02*
X117800000Y-104500000D01*
X120300000Y-104600000D02*
X120300000Y-107400000D01*
X119600000Y-108050000D02*
X119000000Y-108050000D01*
X120300000Y-104650000D02*
G75*
G03*
X119600000Y-103950000I-699999J1D01*
G01*
X118300000Y-107350000D02*
G75*
G03*
X119000000Y-108050000I700000J0D01*
G01*
X119600000Y-108050000D02*
G75*
G03*
X120300000Y-107350000I0J700000D01*
G01*
X119000000Y-103950000D02*
G75*
G03*
X118300000Y-104650000I-1J-699999D01*
G01*
%TO.C,R7*%
X119272936Y-99110000D02*
X120727064Y-99110000D01*
X119272936Y-97290000D02*
X120727064Y-97290000D01*
%TO.C,JP_BMM2*%
X131857500Y-108050000D02*
X131257500Y-108050000D01*
X130557500Y-107400000D02*
X130557500Y-104600000D01*
X132557500Y-104600000D02*
X132557500Y-107400000D01*
X132757500Y-107200000D02*
X133057500Y-107500000D01*
X131257500Y-103950000D02*
X131857500Y-103950000D01*
X133057500Y-107500000D02*
X133057500Y-106900000D01*
X132757500Y-107200000D02*
X133057500Y-106900000D01*
X130557500Y-107350000D02*
G75*
G03*
X131257500Y-108050000I699999J-1D01*
G01*
X132557500Y-104650000D02*
G75*
G03*
X131857500Y-103950000I-700000J0D01*
G01*
X131257500Y-103950000D02*
G75*
G03*
X130557500Y-104650000I0J-700000D01*
G01*
X131857500Y-108050000D02*
G75*
G03*
X132557500Y-107350000I1J699999D01*
G01*
%TO.C,C3*%
X129688748Y-101810000D02*
X131111252Y-101810000D01*
X129688748Y-99990000D02*
X131111252Y-99990000D01*
%TO.C,U1*%
X114292985Y-94823600D02*
X114077600Y-94823600D01*
X116707015Y-98176400D02*
X116922400Y-98176400D01*
X116922400Y-94823600D02*
X116707015Y-94823600D01*
X114077600Y-94823600D02*
X114077600Y-95542987D01*
X114077600Y-97457013D02*
X114077600Y-98176400D01*
X116922400Y-98176400D02*
X116922400Y-97457013D01*
X116922400Y-95542987D02*
X116922400Y-94823600D01*
X114077600Y-98176400D02*
X114292985Y-98176400D01*
G36*
X115940500Y-98455800D02*
G01*
X115559499Y-98455800D01*
X115559499Y-98201800D01*
X115940500Y-98201800D01*
X115940500Y-98455800D01*
G37*
D13*
X115940500Y-98455800D02*
X115559499Y-98455800D01*
X115559499Y-98201800D01*
X115940500Y-98201800D01*
X115940500Y-98455800D01*
D12*
%TO.C,R4*%
X121990000Y-106627064D02*
X121990000Y-105172936D01*
X123810000Y-106627064D02*
X123810000Y-105172936D01*
%TO.C,C4*%
X112748752Y-99590000D02*
X111326248Y-99590000D01*
X112748752Y-101410000D02*
X111326248Y-101410000D01*
%TO.C,R3*%
X115240001Y-90622936D02*
X115240001Y-92077064D01*
X117060001Y-90622936D02*
X117060001Y-92077064D01*
%TO.C,JP_IMU1*%
X109742500Y-91850000D02*
G75*
G03*
X110442500Y-92550000I699999J-1D01*
G01*
X111742500Y-89150000D02*
G75*
G03*
X111042500Y-88450000I-700000J0D01*
G01*
X110442500Y-88450000D02*
G75*
G03*
X109742500Y-89150000I0J-700000D01*
G01*
X111042500Y-92550000D02*
G75*
G03*
X111742500Y-91850000I1J699999D01*
G01*
X111942500Y-91700000D02*
X112242500Y-91400000D01*
X111742500Y-89100000D02*
X111742500Y-91900000D01*
X110442500Y-88450000D02*
X111042500Y-88450000D01*
X112242500Y-92000000D02*
X112242500Y-91400000D01*
X111042500Y-92550000D02*
X110442500Y-92550000D01*
X109742500Y-91900000D02*
X109742500Y-89100000D01*
X111942500Y-91700000D02*
X112242500Y-92000000D01*
%TO.C,R2*%
X127327064Y-95510000D02*
X125872936Y-95510000D01*
X127327064Y-93690000D02*
X125872936Y-93690000D01*
%TO.C,R1*%
X127327064Y-90840000D02*
X125872936Y-90840000D01*
X127327064Y-92660000D02*
X125872936Y-92660000D01*
%TO.C,C2*%
X109790000Y-97111252D02*
X109790000Y-95688748D01*
X111610000Y-97111252D02*
X111610000Y-95688748D01*
%TO.C,R5*%
X129210000Y-105172936D02*
X129210000Y-106627064D01*
X127390000Y-105172936D02*
X127390000Y-106627064D01*
%TO.C,R6*%
X126510000Y-106627064D02*
X126510000Y-105172936D01*
X124690000Y-106627064D02*
X124690000Y-105172936D01*
%TO.C,C1*%
X129726248Y-98910000D02*
X131148752Y-98910000D01*
X129726248Y-97090000D02*
X131148752Y-97090000D01*
%TD*%
M02*
