%TF.GenerationSoftware,KiCad,Pcbnew,(6.0.5)*%
%TF.CreationDate,2022-11-14T02:59:19-05:00*%
%TF.ProjectId,IMU_Board,494d555f-426f-4617-9264-2e6b69636164,rev?*%
%TF.SameCoordinates,Original*%
%TF.FileFunction,Paste,Top*%
%TF.FilePolarity,Positive*%
%FSLAX46Y46*%
G04 Gerber Fmt 4.6, Leading zero omitted, Abs format (unit mm)*
G04 Created by KiCad (PCBNEW (6.0.5)) date 2022-11-14 02:59:19*
%MOMM*%
%LPD*%
G01*
G04 APERTURE LIST*
G04 Aperture macros list*
%AMRoundRect*
0 Rectangle with rounded corners*
0 $1 Rounding radius*
0 $2 $3 $4 $5 $6 $7 $8 $9 X,Y pos of 4 corners*
0 Add a 4 corners polygon primitive as box body*
4,1,4,$2,$3,$4,$5,$6,$7,$8,$9,$2,$3,0*
0 Add four circle primitives for the rounded corners*
1,1,$1+$1,$2,$3*
1,1,$1+$1,$4,$5*
1,1,$1+$1,$6,$7*
1,1,$1+$1,$8,$9*
0 Add four rect primitives between the rounded corners*
20,1,$1+$1,$2,$3,$4,$5,0*
20,1,$1+$1,$4,$5,$6,$7,0*
20,1,$1+$1,$6,$7,$8,$9,0*
20,1,$1+$1,$8,$9,$2,$3,0*%
G04 Aperture macros list end*
%ADD10R,0.351536X0.576580*%
%ADD11R,0.576580X0.351536*%
%ADD12RoundRect,0.250000X-0.400000X-0.625000X0.400000X-0.625000X0.400000X0.625000X-0.400000X0.625000X0*%
%ADD13RoundRect,0.250000X0.625000X-0.400000X0.625000X0.400000X-0.625000X0.400000X-0.625000X-0.400000X0*%
%ADD14RoundRect,0.250000X-0.625000X0.400000X-0.625000X-0.400000X0.625000X-0.400000X0.625000X0.400000X0*%
%ADD15RoundRect,0.250000X-0.412500X-0.650000X0.412500X-0.650000X0.412500X0.650000X-0.412500X0.650000X0*%
%ADD16RoundRect,0.250000X0.412500X0.650000X-0.412500X0.650000X-0.412500X-0.650000X0.412500X-0.650000X0*%
%ADD17RoundRect,0.250000X0.400000X0.625000X-0.400000X0.625000X-0.400000X-0.625000X0.400000X-0.625000X0*%
%ADD18RoundRect,0.250000X0.650000X-0.412500X0.650000X0.412500X-0.650000X0.412500X-0.650000X-0.412500X0*%
%ADD19C,0.152400*%
G04 APERTURE END LIST*
D10*
%TO.C,U1*%
X116250001Y-95289700D03*
X115750000Y-95289700D03*
X115250000Y-95289700D03*
X114749999Y-95289700D03*
D11*
X114543700Y-96000001D03*
X114543700Y-96500000D03*
X114543700Y-96999999D03*
D10*
X114749999Y-97710300D03*
X115250000Y-97710300D03*
X115750000Y-97710300D03*
X116250001Y-97710300D03*
D11*
X116456300Y-96999999D03*
X116456300Y-96500000D03*
X116456300Y-96000001D03*
%TD*%
D12*
%TO.C,R7*%
X118450000Y-98200000D03*
X121550000Y-98200000D03*
%TD*%
D13*
%TO.C,R6*%
X125600000Y-104350000D03*
X125600000Y-107450000D03*
%TD*%
D14*
%TO.C,R5*%
X128300000Y-107450000D03*
X128300000Y-104350000D03*
%TD*%
D13*
%TO.C,R4*%
X122900000Y-107450000D03*
X122900000Y-104350000D03*
%TD*%
D14*
%TO.C,R3*%
X116150001Y-89800000D03*
X116250001Y-92900000D03*
%TD*%
D15*
%TO.C,C3*%
X128837500Y-100900000D03*
X131962500Y-100900000D03*
%TD*%
D16*
%TO.C,C4*%
X110475000Y-100500000D03*
X113600000Y-100500000D03*
%TD*%
D17*
%TO.C,R2*%
X128150000Y-94600000D03*
X125050000Y-94600000D03*
%TD*%
%TO.C,R1*%
X128150000Y-91750000D03*
X125050000Y-91750000D03*
%TD*%
D18*
%TO.C,C2*%
X110700000Y-97962500D03*
X110700000Y-94837500D03*
%TD*%
D19*
%TO.C,U3*%
X126066000Y-99866000D03*
X125500000Y-99866000D03*
X124934000Y-99866000D03*
X125783000Y-99583000D03*
X125217000Y-99583000D03*
X126066000Y-99300000D03*
X124934000Y-99300000D03*
X125783000Y-99017000D03*
X125217000Y-99017000D03*
X126066000Y-98734000D03*
X125500000Y-98734000D03*
X124934000Y-98734000D03*
%TD*%
D15*
%TO.C,C1*%
X128875000Y-98000000D03*
X132000000Y-98000000D03*
%TD*%
M02*
