%TF.GenerationSoftware,KiCad,Pcbnew,(6.0.5)*%
%TF.CreationDate,2022-11-14T00:11:07-05:00*%
%TF.ProjectId,IMU_Board,494d555f-426f-4617-9264-2e6b69636164,rev?*%
%TF.SameCoordinates,Original*%
%TF.FileFunction,Legend,Top*%
%TF.FilePolarity,Positive*%
%FSLAX46Y46*%
G04 Gerber Fmt 4.6, Leading zero omitted, Abs format (unit mm)*
G04 Created by KiCad (PCBNEW (6.0.5)) date 2022-11-14 00:11:07*
%MOMM*%
%LPD*%
G01*
G04 APERTURE LIST*
%ADD10C,0.150000*%
%ADD11C,0.100000*%
%ADD12C,0.120000*%
%ADD13C,0.050000*%
G04 APERTURE END LIST*
D10*
X139335595Y-99822380D02*
X139335595Y-98822380D01*
X139668928Y-99536666D01*
X140002261Y-98822380D01*
X140002261Y-99822380D01*
X140430833Y-99536666D02*
X140907023Y-99536666D01*
X140335595Y-99822380D02*
X140668928Y-98822380D01*
X141002261Y-99822380D01*
X141859404Y-98870000D02*
X141764166Y-98822380D01*
X141621309Y-98822380D01*
X141478452Y-98870000D01*
X141383214Y-98965238D01*
X141335595Y-99060476D01*
X141287976Y-99250952D01*
X141287976Y-99393809D01*
X141335595Y-99584285D01*
X141383214Y-99679523D01*
X141478452Y-99774761D01*
X141621309Y-99822380D01*
X141716547Y-99822380D01*
X141859404Y-99774761D01*
X141907023Y-99727142D01*
X141907023Y-99393809D01*
X141716547Y-99393809D01*
X142097500Y-99917619D02*
X142859404Y-99917619D01*
X143097500Y-99822380D02*
X143097500Y-98822380D01*
X143573690Y-99822380D02*
X143573690Y-98822380D01*
X144145119Y-99822380D01*
X144145119Y-98822380D01*
X144478452Y-98822380D02*
X145049880Y-98822380D01*
X144764166Y-99822380D02*
X144764166Y-98822380D01*
X139335595Y-97282380D02*
X139335595Y-96282380D01*
X139668928Y-96996666D01*
X140002261Y-96282380D01*
X140002261Y-97282380D01*
X140430833Y-96996666D02*
X140907023Y-96996666D01*
X140335595Y-97282380D02*
X140668928Y-96282380D01*
X141002261Y-97282380D01*
X141859404Y-96330000D02*
X141764166Y-96282380D01*
X141621309Y-96282380D01*
X141478452Y-96330000D01*
X141383214Y-96425238D01*
X141335595Y-96520476D01*
X141287976Y-96710952D01*
X141287976Y-96853809D01*
X141335595Y-97044285D01*
X141383214Y-97139523D01*
X141478452Y-97234761D01*
X141621309Y-97282380D01*
X141716547Y-97282380D01*
X141859404Y-97234761D01*
X141907023Y-97187142D01*
X141907023Y-96853809D01*
X141716547Y-96853809D01*
X142097500Y-97377619D02*
X142859404Y-97377619D01*
X143097500Y-97282380D02*
X143097500Y-96282380D01*
X143335595Y-96282380D01*
X143478452Y-96330000D01*
X143573690Y-96425238D01*
X143621309Y-96520476D01*
X143668928Y-96710952D01*
X143668928Y-96853809D01*
X143621309Y-97044285D01*
X143573690Y-97139523D01*
X143478452Y-97234761D01*
X143335595Y-97282380D01*
X143097500Y-97282380D01*
X144668928Y-97282380D02*
X144335595Y-96806190D01*
X144097500Y-97282380D02*
X144097500Y-96282380D01*
X144478452Y-96282380D01*
X144573690Y-96330000D01*
X144621309Y-96377619D01*
X144668928Y-96472857D01*
X144668928Y-96615714D01*
X144621309Y-96710952D01*
X144573690Y-96758571D01*
X144478452Y-96806190D01*
X144097500Y-96806190D01*
X145097500Y-97282380D02*
X145097500Y-96282380D01*
X145335595Y-96282380D01*
X145478452Y-96330000D01*
X145573690Y-96425238D01*
X145621309Y-96520476D01*
X145668928Y-96710952D01*
X145668928Y-96853809D01*
X145621309Y-97044285D01*
X145573690Y-97139523D01*
X145478452Y-97234761D01*
X145335595Y-97282380D01*
X145097500Y-97282380D01*
X146287976Y-96806190D02*
X146287976Y-97282380D01*
X145954642Y-96282380D02*
X146287976Y-96806190D01*
X146621309Y-96282380D01*
X139335595Y-102362380D02*
X139335595Y-101362380D01*
X139811785Y-102362380D02*
X139811785Y-101362380D01*
X140145119Y-102076666D01*
X140478452Y-101362380D01*
X140478452Y-102362380D01*
X140954642Y-101362380D02*
X140954642Y-102171904D01*
X141002261Y-102267142D01*
X141049880Y-102314761D01*
X141145119Y-102362380D01*
X141335595Y-102362380D01*
X141430833Y-102314761D01*
X141478452Y-102267142D01*
X141526071Y-102171904D01*
X141526071Y-101362380D01*
X141764166Y-102457619D02*
X142526071Y-102457619D01*
X142764166Y-102362380D02*
X142764166Y-101362380D01*
X143240357Y-102362380D02*
X143240357Y-101362380D01*
X143811785Y-102362380D01*
X143811785Y-101362380D01*
X144145119Y-101362380D02*
X144716547Y-101362380D01*
X144430833Y-102362380D02*
X144430833Y-101362380D01*
X145573690Y-102362380D02*
X145002261Y-102362380D01*
X145287976Y-102362380D02*
X145287976Y-101362380D01*
X145192738Y-101505238D01*
X145097500Y-101600476D01*
X145002261Y-101648095D01*
X139859404Y-93790000D02*
X139764166Y-93742380D01*
X139621309Y-93742380D01*
X139478452Y-93790000D01*
X139383214Y-93885238D01*
X139335595Y-93980476D01*
X139287976Y-94170952D01*
X139287976Y-94313809D01*
X139335595Y-94504285D01*
X139383214Y-94599523D01*
X139478452Y-94694761D01*
X139621309Y-94742380D01*
X139716547Y-94742380D01*
X139859404Y-94694761D01*
X139907023Y-94647142D01*
X139907023Y-94313809D01*
X139716547Y-94313809D01*
X140335595Y-94742380D02*
X140335595Y-93742380D01*
X140907023Y-94742380D01*
X140907023Y-93742380D01*
X141383214Y-94742380D02*
X141383214Y-93742380D01*
X141621309Y-93742380D01*
X141764166Y-93790000D01*
X141859404Y-93885238D01*
X141907023Y-93980476D01*
X141954642Y-94170952D01*
X141954642Y-94313809D01*
X141907023Y-94504285D01*
X141859404Y-94599523D01*
X141764166Y-94694761D01*
X141621309Y-94742380D01*
X141383214Y-94742380D01*
X139335595Y-104902380D02*
X139335595Y-103902380D01*
X139811785Y-104902380D02*
X139811785Y-103902380D01*
X140145119Y-104616666D01*
X140478452Y-103902380D01*
X140478452Y-104902380D01*
X140954642Y-103902380D02*
X140954642Y-104711904D01*
X141002261Y-104807142D01*
X141049880Y-104854761D01*
X141145119Y-104902380D01*
X141335595Y-104902380D01*
X141430833Y-104854761D01*
X141478452Y-104807142D01*
X141526071Y-104711904D01*
X141526071Y-103902380D01*
X141764166Y-104997619D02*
X142526071Y-104997619D01*
X142764166Y-104902380D02*
X142764166Y-103902380D01*
X143240357Y-104902380D02*
X143240357Y-103902380D01*
X143811785Y-104902380D01*
X143811785Y-103902380D01*
X144145119Y-103902380D02*
X144716547Y-103902380D01*
X144430833Y-104902380D02*
X144430833Y-103902380D01*
X145002261Y-103997619D02*
X145049880Y-103950000D01*
X145145119Y-103902380D01*
X145383214Y-103902380D01*
X145478452Y-103950000D01*
X145526071Y-103997619D01*
X145573690Y-104092857D01*
X145573690Y-104188095D01*
X145526071Y-104330952D01*
X144954642Y-104902380D01*
X145573690Y-104902380D01*
X139240357Y-91202380D02*
X139859404Y-91202380D01*
X139526071Y-91583333D01*
X139668928Y-91583333D01*
X139764166Y-91630952D01*
X139811785Y-91678571D01*
X139859404Y-91773809D01*
X139859404Y-92011904D01*
X139811785Y-92107142D01*
X139764166Y-92154761D01*
X139668928Y-92202380D01*
X139383214Y-92202380D01*
X139287976Y-92154761D01*
X139240357Y-92107142D01*
X140287976Y-92107142D02*
X140335595Y-92154761D01*
X140287976Y-92202380D01*
X140240357Y-92154761D01*
X140287976Y-92107142D01*
X140287976Y-92202380D01*
X140668928Y-91202380D02*
X141287976Y-91202380D01*
X140954642Y-91583333D01*
X141097500Y-91583333D01*
X141192738Y-91630952D01*
X141240357Y-91678571D01*
X141287976Y-91773809D01*
X141287976Y-92011904D01*
X141240357Y-92107142D01*
X141192738Y-92154761D01*
X141097500Y-92202380D01*
X140811785Y-92202380D01*
X140716547Y-92154761D01*
X140668928Y-92107142D01*
X141573690Y-91202380D02*
X141907023Y-92202380D01*
X142240357Y-91202380D01*
%TO.C,*%
%TO.C,U1*%
X120752380Y-94200000D02*
X120990476Y-94200000D01*
X120895238Y-94438095D02*
X120990476Y-94200000D01*
X120895238Y-93961904D01*
X121180952Y-94342857D02*
X120990476Y-94200000D01*
X121180952Y-94057142D01*
%TO.C,U3*%
X126400000Y-100552380D02*
X126400000Y-100790476D01*
X126161904Y-100695238D02*
X126400000Y-100790476D01*
X126638095Y-100695238D01*
X126257142Y-100980952D02*
X126400000Y-100790476D01*
X126542857Y-100980952D01*
%TO.C,BMM_ADDR2*%
X125542857Y-107928571D02*
X125685714Y-107976190D01*
X125733333Y-108023809D01*
X125780952Y-108119047D01*
X125780952Y-108261904D01*
X125733333Y-108357142D01*
X125685714Y-108404761D01*
X125590476Y-108452380D01*
X125209523Y-108452380D01*
X125209523Y-107452380D01*
X125542857Y-107452380D01*
X125638095Y-107500000D01*
X125685714Y-107547619D01*
X125733333Y-107642857D01*
X125733333Y-107738095D01*
X125685714Y-107833333D01*
X125638095Y-107880952D01*
X125542857Y-107928571D01*
X125209523Y-107928571D01*
X126209523Y-108452380D02*
X126209523Y-107452380D01*
X126542857Y-108166666D01*
X126876190Y-107452380D01*
X126876190Y-108452380D01*
X127352380Y-108452380D02*
X127352380Y-107452380D01*
X127685714Y-108166666D01*
X128019047Y-107452380D01*
X128019047Y-108452380D01*
X128257142Y-108547619D02*
X129019047Y-108547619D01*
X129209523Y-108166666D02*
X129685714Y-108166666D01*
X129114285Y-108452380D02*
X129447619Y-107452380D01*
X129780952Y-108452380D01*
X130114285Y-108452380D02*
X130114285Y-107452380D01*
X130352380Y-107452380D01*
X130495238Y-107500000D01*
X130590476Y-107595238D01*
X130638095Y-107690476D01*
X130685714Y-107880952D01*
X130685714Y-108023809D01*
X130638095Y-108214285D01*
X130590476Y-108309523D01*
X130495238Y-108404761D01*
X130352380Y-108452380D01*
X130114285Y-108452380D01*
X131114285Y-108452380D02*
X131114285Y-107452380D01*
X131352380Y-107452380D01*
X131495238Y-107500000D01*
X131590476Y-107595238D01*
X131638095Y-107690476D01*
X131685714Y-107880952D01*
X131685714Y-108023809D01*
X131638095Y-108214285D01*
X131590476Y-108309523D01*
X131495238Y-108404761D01*
X131352380Y-108452380D01*
X131114285Y-108452380D01*
X132685714Y-108452380D02*
X132352380Y-107976190D01*
X132114285Y-108452380D02*
X132114285Y-107452380D01*
X132495238Y-107452380D01*
X132590476Y-107500000D01*
X132638095Y-107547619D01*
X132685714Y-107642857D01*
X132685714Y-107785714D01*
X132638095Y-107880952D01*
X132590476Y-107928571D01*
X132495238Y-107976190D01*
X132114285Y-107976190D01*
X133066666Y-107547619D02*
X133114285Y-107500000D01*
X133209523Y-107452380D01*
X133447619Y-107452380D01*
X133542857Y-107500000D01*
X133590476Y-107547619D01*
X133638095Y-107642857D01*
X133638095Y-107738095D01*
X133590476Y-107880952D01*
X133019047Y-108452380D01*
X133638095Y-108452380D01*
%TO.C,*%
%TO.C,BMM_ADDR1*%
X116142857Y-107928571D02*
X116285714Y-107976190D01*
X116333333Y-108023809D01*
X116380952Y-108119047D01*
X116380952Y-108261904D01*
X116333333Y-108357142D01*
X116285714Y-108404761D01*
X116190476Y-108452380D01*
X115809523Y-108452380D01*
X115809523Y-107452380D01*
X116142857Y-107452380D01*
X116238095Y-107500000D01*
X116285714Y-107547619D01*
X116333333Y-107642857D01*
X116333333Y-107738095D01*
X116285714Y-107833333D01*
X116238095Y-107880952D01*
X116142857Y-107928571D01*
X115809523Y-107928571D01*
X116809523Y-108452380D02*
X116809523Y-107452380D01*
X117142857Y-108166666D01*
X117476190Y-107452380D01*
X117476190Y-108452380D01*
X117952380Y-108452380D02*
X117952380Y-107452380D01*
X118285714Y-108166666D01*
X118619047Y-107452380D01*
X118619047Y-108452380D01*
X118857142Y-108547619D02*
X119619047Y-108547619D01*
X119809523Y-108166666D02*
X120285714Y-108166666D01*
X119714285Y-108452380D02*
X120047619Y-107452380D01*
X120380952Y-108452380D01*
X120714285Y-108452380D02*
X120714285Y-107452380D01*
X120952380Y-107452380D01*
X121095238Y-107500000D01*
X121190476Y-107595238D01*
X121238095Y-107690476D01*
X121285714Y-107880952D01*
X121285714Y-108023809D01*
X121238095Y-108214285D01*
X121190476Y-108309523D01*
X121095238Y-108404761D01*
X120952380Y-108452380D01*
X120714285Y-108452380D01*
X121714285Y-108452380D02*
X121714285Y-107452380D01*
X121952380Y-107452380D01*
X122095238Y-107500000D01*
X122190476Y-107595238D01*
X122238095Y-107690476D01*
X122285714Y-107880952D01*
X122285714Y-108023809D01*
X122238095Y-108214285D01*
X122190476Y-108309523D01*
X122095238Y-108404761D01*
X121952380Y-108452380D01*
X121714285Y-108452380D01*
X123285714Y-108452380D02*
X122952380Y-107976190D01*
X122714285Y-108452380D02*
X122714285Y-107452380D01*
X123095238Y-107452380D01*
X123190476Y-107500000D01*
X123238095Y-107547619D01*
X123285714Y-107642857D01*
X123285714Y-107785714D01*
X123238095Y-107880952D01*
X123190476Y-107928571D01*
X123095238Y-107976190D01*
X122714285Y-107976190D01*
X124238095Y-108452380D02*
X123666666Y-108452380D01*
X123952380Y-108452380D02*
X123952380Y-107452380D01*
X123857142Y-107595238D01*
X123761904Y-107690476D01*
X123666666Y-107738095D01*
%TO.C,C3*%
X130233333Y-103157142D02*
X130185714Y-103204761D01*
X130042857Y-103252380D01*
X129947619Y-103252380D01*
X129804761Y-103204761D01*
X129709523Y-103109523D01*
X129661904Y-103014285D01*
X129614285Y-102823809D01*
X129614285Y-102680952D01*
X129661904Y-102490476D01*
X129709523Y-102395238D01*
X129804761Y-102300000D01*
X129947619Y-102252380D01*
X130042857Y-102252380D01*
X130185714Y-102300000D01*
X130233333Y-102347619D01*
X130566666Y-102252380D02*
X131185714Y-102252380D01*
X130852380Y-102633333D01*
X130995238Y-102633333D01*
X131090476Y-102680952D01*
X131138095Y-102728571D01*
X131185714Y-102823809D01*
X131185714Y-103061904D01*
X131138095Y-103157142D01*
X131090476Y-103204761D01*
X130995238Y-103252380D01*
X130709523Y-103252380D01*
X130614285Y-103204761D01*
X130566666Y-103157142D01*
%TO.C,J1*%
X136866666Y-106232380D02*
X136866666Y-106946666D01*
X136819047Y-107089523D01*
X136723809Y-107184761D01*
X136580952Y-107232380D01*
X136485714Y-107232380D01*
X137866666Y-107232380D02*
X137295238Y-107232380D01*
X137580952Y-107232380D02*
X137580952Y-106232380D01*
X137485714Y-106375238D01*
X137390476Y-106470476D01*
X137295238Y-106518095D01*
%TO.C,C4*%
X116033333Y-103307142D02*
X115985714Y-103354761D01*
X115842857Y-103402380D01*
X115747619Y-103402380D01*
X115604761Y-103354761D01*
X115509523Y-103259523D01*
X115461904Y-103164285D01*
X115414285Y-102973809D01*
X115414285Y-102830952D01*
X115461904Y-102640476D01*
X115509523Y-102545238D01*
X115604761Y-102450000D01*
X115747619Y-102402380D01*
X115842857Y-102402380D01*
X115985714Y-102450000D01*
X116033333Y-102497619D01*
X116890476Y-102735714D02*
X116890476Y-103402380D01*
X116652380Y-102354761D02*
X116414285Y-103069047D01*
X117033333Y-103069047D01*
%TO.C,IMU_ADDR1*%
X116119047Y-89652380D02*
X116119047Y-88652380D01*
X116595238Y-89652380D02*
X116595238Y-88652380D01*
X116928571Y-89366666D01*
X117261904Y-88652380D01*
X117261904Y-89652380D01*
X117738095Y-88652380D02*
X117738095Y-89461904D01*
X117785714Y-89557142D01*
X117833333Y-89604761D01*
X117928571Y-89652380D01*
X118119047Y-89652380D01*
X118214285Y-89604761D01*
X118261904Y-89557142D01*
X118309523Y-89461904D01*
X118309523Y-88652380D01*
X118547619Y-89747619D02*
X119309523Y-89747619D01*
X119500000Y-89366666D02*
X119976190Y-89366666D01*
X119404761Y-89652380D02*
X119738095Y-88652380D01*
X120071428Y-89652380D01*
X120404761Y-89652380D02*
X120404761Y-88652380D01*
X120642857Y-88652380D01*
X120785714Y-88700000D01*
X120880952Y-88795238D01*
X120928571Y-88890476D01*
X120976190Y-89080952D01*
X120976190Y-89223809D01*
X120928571Y-89414285D01*
X120880952Y-89509523D01*
X120785714Y-89604761D01*
X120642857Y-89652380D01*
X120404761Y-89652380D01*
X121404761Y-89652380D02*
X121404761Y-88652380D01*
X121642857Y-88652380D01*
X121785714Y-88700000D01*
X121880952Y-88795238D01*
X121928571Y-88890476D01*
X121976190Y-89080952D01*
X121976190Y-89223809D01*
X121928571Y-89414285D01*
X121880952Y-89509523D01*
X121785714Y-89604761D01*
X121642857Y-89652380D01*
X121404761Y-89652380D01*
X122976190Y-89652380D02*
X122642857Y-89176190D01*
X122404761Y-89652380D02*
X122404761Y-88652380D01*
X122785714Y-88652380D01*
X122880952Y-88700000D01*
X122928571Y-88747619D01*
X122976190Y-88842857D01*
X122976190Y-88985714D01*
X122928571Y-89080952D01*
X122880952Y-89128571D01*
X122785714Y-89176190D01*
X122404761Y-89176190D01*
X123928571Y-89652380D02*
X123357142Y-89652380D01*
X123642857Y-89652380D02*
X123642857Y-88652380D01*
X123547619Y-88795238D01*
X123452380Y-88890476D01*
X123357142Y-88938095D01*
%TO.C,R2*%
X126433333Y-96872380D02*
X126100000Y-96396190D01*
X125861904Y-96872380D02*
X125861904Y-95872380D01*
X126242857Y-95872380D01*
X126338095Y-95920000D01*
X126385714Y-95967619D01*
X126433333Y-96062857D01*
X126433333Y-96205714D01*
X126385714Y-96300952D01*
X126338095Y-96348571D01*
X126242857Y-96396190D01*
X125861904Y-96396190D01*
X126814285Y-95967619D02*
X126861904Y-95920000D01*
X126957142Y-95872380D01*
X127195238Y-95872380D01*
X127290476Y-95920000D01*
X127338095Y-95967619D01*
X127385714Y-96062857D01*
X127385714Y-96158095D01*
X127338095Y-96300952D01*
X126766666Y-96872380D01*
X127385714Y-96872380D01*
%TO.C,R1*%
X126533333Y-90352380D02*
X126200000Y-89876190D01*
X125961904Y-90352380D02*
X125961904Y-89352380D01*
X126342857Y-89352380D01*
X126438095Y-89400000D01*
X126485714Y-89447619D01*
X126533333Y-89542857D01*
X126533333Y-89685714D01*
X126485714Y-89780952D01*
X126438095Y-89828571D01*
X126342857Y-89876190D01*
X125961904Y-89876190D01*
X127485714Y-90352380D02*
X126914285Y-90352380D01*
X127200000Y-90352380D02*
X127200000Y-89352380D01*
X127104761Y-89495238D01*
X127009523Y-89590476D01*
X126914285Y-89638095D01*
%TO.C,C2*%
X113407142Y-96566666D02*
X113454761Y-96614285D01*
X113502380Y-96757142D01*
X113502380Y-96852380D01*
X113454761Y-96995238D01*
X113359523Y-97090476D01*
X113264285Y-97138095D01*
X113073809Y-97185714D01*
X112930952Y-97185714D01*
X112740476Y-97138095D01*
X112645238Y-97090476D01*
X112550000Y-96995238D01*
X112502380Y-96852380D01*
X112502380Y-96757142D01*
X112550000Y-96614285D01*
X112597619Y-96566666D01*
X112597619Y-96185714D02*
X112550000Y-96138095D01*
X112502380Y-96042857D01*
X112502380Y-95804761D01*
X112550000Y-95709523D01*
X112597619Y-95661904D01*
X112692857Y-95614285D01*
X112788095Y-95614285D01*
X112930952Y-95661904D01*
X113502380Y-96233333D01*
X113502380Y-95614285D01*
%TO.C,C1*%
X130270833Y-96507142D02*
X130223214Y-96554761D01*
X130080357Y-96602380D01*
X129985119Y-96602380D01*
X129842261Y-96554761D01*
X129747023Y-96459523D01*
X129699404Y-96364285D01*
X129651785Y-96173809D01*
X129651785Y-96030952D01*
X129699404Y-95840476D01*
X129747023Y-95745238D01*
X129842261Y-95650000D01*
X129985119Y-95602380D01*
X130080357Y-95602380D01*
X130223214Y-95650000D01*
X130270833Y-95697619D01*
X131223214Y-96602380D02*
X130651785Y-96602380D01*
X130937500Y-96602380D02*
X130937500Y-95602380D01*
X130842261Y-95745238D01*
X130747023Y-95840476D01*
X130651785Y-95888095D01*
%TO.C,U1*%
G36*
X120040500Y-98455800D02*
G01*
X119659499Y-98455800D01*
X119659499Y-98201800D01*
X120040500Y-98201800D01*
X120040500Y-98455800D01*
G37*
D11*
X120040500Y-98455800D02*
X119659499Y-98455800D01*
X119659499Y-98201800D01*
X120040500Y-98201800D01*
X120040500Y-98455800D01*
D12*
X118177600Y-98176400D02*
X118392985Y-98176400D01*
X121022400Y-95542987D02*
X121022400Y-94823600D01*
X121022400Y-98176400D02*
X121022400Y-97457013D01*
X118177600Y-97457013D02*
X118177600Y-98176400D01*
X118177600Y-94823600D02*
X118177600Y-95542987D01*
X121022400Y-94823600D02*
X120807015Y-94823600D01*
X120807015Y-98176400D02*
X121022400Y-98176400D01*
X118392985Y-94823600D02*
X118177600Y-94823600D01*
D13*
%TO.C,U3*%
X124431000Y-100299000D02*
X124431000Y-98231000D01*
X124431000Y-98231000D02*
X126499000Y-98231000D01*
X126499000Y-100299000D02*
X124431000Y-100299000D01*
X126499000Y-98231000D02*
X126499000Y-100299000D01*
D12*
%TO.C,BMM_ADDR2*%
X124100000Y-103700000D02*
X123800000Y-104000000D01*
X124300000Y-106300000D02*
X124300000Y-103500000D01*
X125000000Y-102850000D02*
X125600000Y-102850000D01*
X123800000Y-103400000D02*
X123800000Y-104000000D01*
X124100000Y-103700000D02*
X123800000Y-103400000D01*
X126300000Y-103500000D02*
X126300000Y-106300000D01*
X125600000Y-106950000D02*
X125000000Y-106950000D01*
X126300000Y-103550000D02*
G75*
G03*
X125600000Y-102850000I-699999J1D01*
G01*
X124300000Y-106250000D02*
G75*
G03*
X125000000Y-106950000I700000J0D01*
G01*
X125600000Y-106950000D02*
G75*
G03*
X126300000Y-106250000I0J700000D01*
G01*
X125000000Y-102850000D02*
G75*
G03*
X124300000Y-103550000I-1J-699999D01*
G01*
%TO.C,BMM_ADDR1*%
X121600000Y-102850000D02*
X122200000Y-102850000D01*
X122900000Y-103500000D02*
X122900000Y-106300000D01*
X120900000Y-106300000D02*
X120900000Y-103500000D01*
X120700000Y-103700000D02*
X120400000Y-103400000D01*
X122200000Y-106950000D02*
X121600000Y-106950000D01*
X120400000Y-103400000D02*
X120400000Y-104000000D01*
X120700000Y-103700000D02*
X120400000Y-104000000D01*
X122900000Y-103550000D02*
G75*
G03*
X122200000Y-102850000I-699999J1D01*
G01*
X120900000Y-106250000D02*
G75*
G03*
X121600000Y-106950000I700000J0D01*
G01*
X122200000Y-106950000D02*
G75*
G03*
X122900000Y-106250000I0J700000D01*
G01*
X121600000Y-102850000D02*
G75*
G03*
X120900000Y-103550000I-1J-699999D01*
G01*
%TO.C,C3*%
X129688748Y-101810000D02*
X131111252Y-101810000D01*
X129688748Y-99990000D02*
X131111252Y-99990000D01*
%TO.C,J1*%
X135870000Y-103180000D02*
X135870000Y-90420000D01*
X138530000Y-103180000D02*
X135870000Y-103180000D01*
X138530000Y-90420000D02*
X135870000Y-90420000D01*
X138530000Y-103180000D02*
X138530000Y-90420000D01*
X138530000Y-104450000D02*
X138530000Y-105780000D01*
X138530000Y-105780000D02*
X137200000Y-105780000D01*
%TO.C,C4*%
X116911252Y-100190000D02*
X115488748Y-100190000D01*
X116911252Y-102010000D02*
X115488748Y-102010000D01*
%TO.C,IMU_ADDR1*%
X117700000Y-93000000D02*
X117400000Y-93300000D01*
X117500000Y-90800000D02*
X120300000Y-90800000D01*
X116850000Y-92100000D02*
X116850000Y-91500000D01*
X117400000Y-93300000D02*
X118000000Y-93300000D01*
X120950000Y-91500000D02*
X120950000Y-92100000D01*
X120300000Y-92800000D02*
X117500000Y-92800000D01*
X117700000Y-93000000D02*
X118000000Y-93300000D01*
X116850000Y-92100000D02*
G75*
G03*
X117550000Y-92800000I699999J-1D01*
G01*
X120950000Y-91500000D02*
G75*
G03*
X120250000Y-90800000I-700000J0D01*
G01*
X120250000Y-92800000D02*
G75*
G03*
X120950000Y-92100000I0J700000D01*
G01*
X117550000Y-90800000D02*
G75*
G03*
X116850000Y-91500000I-1J-699999D01*
G01*
%TO.C,R2*%
X127327064Y-95510000D02*
X125872936Y-95510000D01*
X127327064Y-93690000D02*
X125872936Y-93690000D01*
%TO.C,R1*%
X127327064Y-90840000D02*
X125872936Y-90840000D01*
X127327064Y-92660000D02*
X125872936Y-92660000D01*
%TO.C,C2*%
X113990000Y-97111252D02*
X113990000Y-95688748D01*
X115810000Y-97111252D02*
X115810000Y-95688748D01*
%TO.C,C1*%
X129726248Y-98910000D02*
X131148752Y-98910000D01*
X129726248Y-97090000D02*
X131148752Y-97090000D01*
%TD*%
M02*
