M48
; DRILL file {KiCad (6.0.5)} date Mon Nov 14 22:05:21 2022
; FORMAT={-:-/ absolute / metric / decimal}
; #@! TF.CreationDate,2022-11-14T22:05:21-05:00
; #@! TF.GenerationSoftware,Kicad,Pcbnew,(6.0.5)
; #@! TF.FileFunction,MixedPlating,1,2
FMAT,2
METRIC
; #@! TA.AperFunction,Plated,PTH,ViaDrill
T1C0.400
; #@! TA.AperFunction,Plated,PTH,ComponentDrill
T2C1.000
; #@! TA.AperFunction,NonPlated,NPTH,ComponentDrill
T3C3.200
%
G90
G05
T1
X112.5Y-97.962
X113.16Y-94.248
X115.25Y-99.3
X120.9Y-94.6
X122.6Y-91.75
X123.8Y-99.017
X124.1Y-97.5
X124.6Y-101.44
X125.0Y-102.7
X127.3Y-99.7
X128.8Y-102.7
X131.3Y-96.0
X132.0Y-92.76
T2
X147.1Y-90.22
X147.1Y-92.76
X147.1Y-95.3
X147.1Y-97.84
X147.1Y-100.38
X147.1Y-102.92
X147.1Y-105.46
X147.1Y-108.0
T3
X106.0Y-90.0
X106.0Y-109.0
T0
M30
