%TF.GenerationSoftware,KiCad,Pcbnew,(6.0.5)*%
%TF.CreationDate,2022-11-14T00:11:07-05:00*%
%TF.ProjectId,IMU_Board,494d555f-426f-4617-9264-2e6b69636164,rev?*%
%TF.SameCoordinates,Original*%
%TF.FileFunction,Copper,L1,Top*%
%TF.FilePolarity,Positive*%
%FSLAX46Y46*%
G04 Gerber Fmt 4.6, Leading zero omitted, Abs format (unit mm)*
G04 Created by KiCad (PCBNEW (6.0.5)) date 2022-11-14 00:11:07*
%MOMM*%
%LPD*%
G01*
G04 APERTURE LIST*
G04 Aperture macros list*
%AMRoundRect*
0 Rectangle with rounded corners*
0 $1 Rounding radius*
0 $2 $3 $4 $5 $6 $7 $8 $9 X,Y pos of 4 corners*
0 Add a 4 corners polygon primitive as box body*
4,1,4,$2,$3,$4,$5,$6,$7,$8,$9,$2,$3,0*
0 Add four circle primitives for the rounded corners*
1,1,$1+$1,$2,$3*
1,1,$1+$1,$4,$5*
1,1,$1+$1,$6,$7*
1,1,$1+$1,$8,$9*
0 Add four rect primitives between the rounded corners*
20,1,$1+$1,$2,$3,$4,$5,0*
20,1,$1+$1,$4,$5,$6,$7,0*
20,1,$1+$1,$6,$7,$8,$9,0*
20,1,$1+$1,$8,$9,$2,$3,0*%
%AMFreePoly0*
4,1,22,0.550000,-0.750000,0.000000,-0.750000,0.000000,-0.745033,-0.079941,-0.743568,-0.215256,-0.701293,-0.333266,-0.622738,-0.424486,-0.514219,-0.481581,-0.384460,-0.499164,-0.250000,-0.500000,-0.250000,-0.500000,0.250000,-0.499164,0.250000,-0.499963,0.256109,-0.478152,0.396186,-0.417904,0.524511,-0.324060,0.630769,-0.204165,0.706417,-0.067858,0.745374,0.000000,0.744959,0.000000,0.750000,
0.550000,0.750000,0.550000,-0.750000,0.550000,-0.750000,$1*%
%AMFreePoly1*
4,1,20,0.000000,0.744959,0.073905,0.744508,0.209726,0.703889,0.328688,0.626782,0.421226,0.519385,0.479903,0.390333,0.500000,0.250000,0.500000,-0.250000,0.499851,-0.262216,0.476331,-0.402017,0.414519,-0.529596,0.319384,-0.634700,0.198574,-0.708877,0.061801,-0.746166,0.000000,-0.745033,0.000000,-0.750000,-0.550000,-0.750000,-0.550000,0.750000,0.000000,0.750000,0.000000,0.744959,
0.000000,0.744959,$1*%
G04 Aperture macros list end*
%TA.AperFunction,SMDPad,CuDef*%
%ADD10R,0.576580X0.351536*%
%TD*%
%TA.AperFunction,SMDPad,CuDef*%
%ADD11R,0.351536X0.576580*%
%TD*%
%TA.AperFunction,SMDPad,CuDef*%
%ADD12C,0.152400*%
%TD*%
%TA.AperFunction,SMDPad,CuDef*%
%ADD13FreePoly0,270.000000*%
%TD*%
%TA.AperFunction,SMDPad,CuDef*%
%ADD14R,1.500000X1.000000*%
%TD*%
%TA.AperFunction,SMDPad,CuDef*%
%ADD15FreePoly1,270.000000*%
%TD*%
%TA.AperFunction,SMDPad,CuDef*%
%ADD16RoundRect,0.250000X-0.412500X-0.650000X0.412500X-0.650000X0.412500X0.650000X-0.412500X0.650000X0*%
%TD*%
%TA.AperFunction,ComponentPad*%
%ADD17R,1.700000X1.700000*%
%TD*%
%TA.AperFunction,ComponentPad*%
%ADD18O,1.700000X1.700000*%
%TD*%
%TA.AperFunction,SMDPad,CuDef*%
%ADD19RoundRect,0.250000X0.412500X0.650000X-0.412500X0.650000X-0.412500X-0.650000X0.412500X-0.650000X0*%
%TD*%
%TA.AperFunction,SMDPad,CuDef*%
%ADD20FreePoly0,0.000000*%
%TD*%
%TA.AperFunction,SMDPad,CuDef*%
%ADD21R,1.000000X1.500000*%
%TD*%
%TA.AperFunction,SMDPad,CuDef*%
%ADD22FreePoly1,0.000000*%
%TD*%
%TA.AperFunction,SMDPad,CuDef*%
%ADD23RoundRect,0.250000X0.400000X0.625000X-0.400000X0.625000X-0.400000X-0.625000X0.400000X-0.625000X0*%
%TD*%
%TA.AperFunction,SMDPad,CuDef*%
%ADD24RoundRect,0.250000X0.650000X-0.412500X0.650000X0.412500X-0.650000X0.412500X-0.650000X-0.412500X0*%
%TD*%
%TA.AperFunction,ViaPad*%
%ADD25C,0.800000*%
%TD*%
%TA.AperFunction,Conductor*%
%ADD26C,0.127000*%
%TD*%
G04 APERTURE END LIST*
D10*
%TO.P,U1,14,SDA*%
%TO.N,/SDA*%
X120556300Y-96000001D03*
%TO.P,U1,13,SCL*%
%TO.N,/SCL*%
X120556300Y-96500000D03*
%TO.P,U1,12,CS*%
%TO.N,VCC*%
X120556300Y-96999999D03*
D11*
%TO.P,U1,11,SDO_Aux*%
%TO.N,unconnected-(U1-Pad11)*%
X120350001Y-97710300D03*
%TO.P,U1,10,OCS_Aux*%
%TO.N,unconnected-(U1-Pad10)*%
X119850000Y-97710300D03*
%TO.P,U1,9,INT2*%
%TO.N,IMU_INT2*%
X119350000Y-97710300D03*
%TO.P,U1,8,VDD*%
%TO.N,VCC*%
X118849999Y-97710300D03*
D10*
%TO.P,U1,7,GND*%
%TO.N,GND*%
X118643700Y-96999999D03*
%TO.P,U1,6,GND*%
X118643700Y-96500000D03*
%TO.P,U1,5,VDDIO*%
%TO.N,VCC*%
X118643700Y-96000001D03*
D11*
%TO.P,U1,4,INT1*%
%TO.N,IMU_INT1*%
X118849999Y-95289700D03*
%TO.P,U1,3,SCx*%
%TO.N,VCC*%
X119350000Y-95289700D03*
%TO.P,U1,2,SDx*%
X119850000Y-95289700D03*
%TO.P,U1,1,SDO/SA0*%
%TO.N,Net-(JP_IMU1-Pad2)*%
X120350001Y-95289700D03*
%TD*%
D12*
%TO.P,U3,A1,PS*%
%TO.N,VCC*%
X126066000Y-99866000D03*
%TO.P,U3,A3,SCK*%
%TO.N,/SCL*%
X125500000Y-99866000D03*
%TO.P,U3,A5,CSB*%
%TO.N,Net-(JP_BMM1-Pad2)*%
X124934000Y-99866000D03*
%TO.P,U3,B2,VDDIO*%
%TO.N,VCC*%
X125783000Y-99583000D03*
%TO.P,U3,B4,SDI*%
%TO.N,/SDA*%
X125217000Y-99583000D03*
%TO.P,U3,C1,SDO*%
%TO.N,Net-(JP_BMM2-Pad2)*%
X126066000Y-99300000D03*
%TO.P,U3,C5,GND*%
%TO.N,GND*%
X124934000Y-99300000D03*
%TO.P,U3,D2,INT*%
%TO.N,MAG_INT*%
X125783000Y-99017000D03*
%TO.P,U3,D4,DRY*%
%TO.N,MAG_DRDY*%
X125217000Y-99017000D03*
%TO.P,U3,E1,GND*%
%TO.N,GND*%
X126066000Y-98734000D03*
%TO.P,U3,E3,GND*%
X125500000Y-98734000D03*
%TO.P,U3,E5,VDD*%
%TO.N,VCC*%
X124934000Y-98734000D03*
%TD*%
D13*
%TO.P,BMM_ADDR2,1,A*%
%TO.N,VCC*%
X125300000Y-103600000D03*
D14*
%TO.P,BMM_ADDR2,2,C*%
%TO.N,Net-(JP_BMM1-Pad2)*%
X125300000Y-104900000D03*
D15*
%TO.P,BMM_ADDR2,3,B*%
%TO.N,GND*%
X125300000Y-106200000D03*
%TD*%
D13*
%TO.P,BMM_ADDR1,1,A*%
%TO.N,VCC*%
X121900000Y-103600000D03*
D14*
%TO.P,BMM_ADDR1,2,C*%
%TO.N,Net-(JP_BMM2-Pad2)*%
X121900000Y-104900000D03*
D15*
%TO.P,BMM_ADDR1,3,B*%
%TO.N,GND*%
X121900000Y-106200000D03*
%TD*%
D16*
%TO.P,C3,1*%
%TO.N,VCC*%
X128837500Y-100900000D03*
%TO.P,C3,2*%
%TO.N,GND*%
X131962500Y-100900000D03*
%TD*%
D17*
%TO.P,J1,1,Pin_1*%
%TO.N,IMU_INT2*%
X137200000Y-104450000D03*
D18*
%TO.P,J1,2,Pin_2*%
%TO.N,IMU_INT1*%
X137200000Y-101910000D03*
%TO.P,J1,3,Pin_3*%
%TO.N,MAG_INT*%
X137200000Y-99370000D03*
%TO.P,J1,4,Pin_4*%
%TO.N,MAG_DRDY*%
X137200000Y-96830000D03*
%TO.P,J1,5,Pin_5*%
%TO.N,GND*%
X137200000Y-94290000D03*
%TO.P,J1,6,Pin_6*%
%TO.N,VCC*%
X137200000Y-91750000D03*
%TD*%
D19*
%TO.P,C4,1*%
%TO.N,VCC*%
X117762500Y-101100000D03*
%TO.P,C4,2*%
%TO.N,GND*%
X114637500Y-101100000D03*
%TD*%
D20*
%TO.P,IMU_ADDR1,1,A*%
%TO.N,VCC*%
X117600000Y-91800000D03*
D21*
%TO.P,IMU_ADDR1,2,C*%
%TO.N,Net-(JP_IMU1-Pad2)*%
X118900000Y-91800000D03*
D22*
%TO.P,IMU_ADDR1,3,B*%
%TO.N,GND*%
X120200000Y-91800000D03*
%TD*%
D23*
%TO.P,R2,1*%
%TO.N,VCC*%
X128150000Y-94600000D03*
%TO.P,R2,2*%
%TO.N,/SCL*%
X125050000Y-94600000D03*
%TD*%
%TO.P,R1,1*%
%TO.N,VCC*%
X128150000Y-91750000D03*
%TO.P,R1,2*%
%TO.N,/SDA*%
X125050000Y-91750000D03*
%TD*%
D24*
%TO.P,C2,1*%
%TO.N,GND*%
X114900000Y-97962500D03*
%TO.P,C2,2*%
%TO.N,VCC*%
X114900000Y-94837500D03*
%TD*%
D16*
%TO.P,C1,1*%
%TO.N,VCC*%
X128875000Y-98000000D03*
%TO.P,C1,2*%
%TO.N,GND*%
X132000000Y-98000000D03*
%TD*%
D25*
%TO.N,IMU_INT2*%
X119300000Y-99300000D03*
X134600000Y-104450000D03*
%TO.N,IMU_INT1*%
X134600000Y-101910000D03*
X117360160Y-94247500D03*
%TO.N,MAG_DRDY*%
X134600000Y-96830000D03*
X123800000Y-99017000D03*
%TO.N,MAG_INT*%
X134600000Y-99370000D03*
X127127915Y-98772085D03*
%TO.N,GND*%
X116700000Y-97962500D03*
X132000000Y-94290000D03*
%TO.N,/SDA*%
X122600000Y-91750000D03*
X123800000Y-98000000D03*
%TO.N,/SCL*%
X123100000Y-94600000D03*
X125500000Y-101200000D03*
%TO.N,Net-(JP_BMM2-Pad2)*%
X127300000Y-99800000D03*
X120000000Y-104900000D03*
%TD*%
D26*
%TO.N,MAG_DRDY*%
X125217000Y-99017000D02*
X123800000Y-99017000D01*
%TO.N,GND*%
X132000000Y-94290000D02*
X132000000Y-98000000D01*
X130909980Y-96909980D02*
X132000000Y-98000000D01*
X127890020Y-96909980D02*
X130909980Y-96909980D01*
X126066000Y-98734000D02*
X127890020Y-96909980D01*
%TO.N,IMU_INT2*%
X119350000Y-97710300D02*
X119350000Y-99250000D01*
X134600000Y-104450000D02*
X137200000Y-104450000D01*
X119350000Y-99250000D02*
X119300000Y-99300000D01*
%TO.N,IMU_INT1*%
X137200000Y-101910000D02*
X134600000Y-101910000D01*
X117360160Y-94247500D02*
X118402360Y-95289700D01*
X118402360Y-95289700D02*
X118849999Y-95289700D01*
%TO.N,MAG_DRDY*%
X137200000Y-96830000D02*
X134600000Y-96830000D01*
%TO.N,MAG_INT*%
X137200000Y-99370000D02*
X134600000Y-99370000D01*
X125783000Y-99017000D02*
X126883000Y-99017000D01*
X126883000Y-99017000D02*
X127127915Y-98772085D01*
%TO.N,GND*%
X138240011Y-95330011D02*
X137200000Y-94290000D01*
X121900000Y-106200000D02*
X119737500Y-106200000D01*
X125300000Y-106200000D02*
X121900000Y-106200000D01*
X137800000Y-90300000D02*
X138800000Y-91300000D01*
X125500000Y-98734000D02*
X125500000Y-99110480D01*
X118643700Y-96500000D02*
X118643700Y-96999999D01*
X138800000Y-92690000D02*
X137200000Y-94290000D01*
X138240011Y-99800788D02*
X138240011Y-95330011D01*
X131962500Y-100900000D02*
X131992511Y-100869989D01*
X126066000Y-98734000D02*
X125500000Y-98734000D01*
X119737500Y-106200000D02*
X114637500Y-101100000D01*
X131962500Y-100900000D02*
X126662500Y-106200000D01*
X125310480Y-99300000D02*
X124934000Y-99300000D01*
X121700000Y-90300000D02*
X137800000Y-90300000D01*
X118643700Y-96999999D02*
X115862501Y-96999999D01*
X138800000Y-91300000D02*
X138800000Y-92690000D01*
X131992511Y-100869989D02*
X137170810Y-100869989D01*
X125500000Y-99110480D02*
X125310480Y-99300000D01*
X126662500Y-106200000D02*
X125300000Y-106200000D01*
X137170810Y-100869989D02*
X138240011Y-99800788D01*
X120200000Y-91800000D02*
X121700000Y-90300000D01*
X114900000Y-97962500D02*
X116700000Y-97962500D01*
X115862501Y-96999999D02*
X114900000Y-97962500D01*
%TO.N,VCC*%
X127300000Y-103600000D02*
X125300000Y-103600000D01*
X113600000Y-98347282D02*
X113600000Y-96137500D01*
X128837500Y-102062500D02*
X127300000Y-103600000D01*
X133800000Y-97884782D02*
X133800000Y-95700000D01*
X127100000Y-100900000D02*
X128837500Y-100900000D01*
X124934000Y-98734000D02*
X128150000Y-95518000D01*
X117762500Y-101100000D02*
X116352718Y-101100000D01*
X119850000Y-95289700D02*
X119350000Y-95289700D01*
X128875000Y-100862500D02*
X128837500Y-100900000D01*
X116352718Y-101100000D02*
X113600000Y-98347282D01*
X128837500Y-100900000D02*
X128837500Y-102062500D01*
X114900000Y-94500000D02*
X117600000Y-91800000D01*
X113600000Y-96137500D02*
X114900000Y-94837500D01*
X128875000Y-98000000D02*
X128875000Y-100862500D01*
X114900000Y-94837500D02*
X114900000Y-94500000D01*
X120556300Y-96999999D02*
X125750001Y-96999999D01*
X137200000Y-92300000D02*
X137200000Y-91750000D01*
X128875000Y-98000000D02*
X129965020Y-99090020D01*
X128150000Y-95518000D02*
X128150000Y-94600000D01*
X114900000Y-94837500D02*
X116062501Y-96000001D01*
X119212221Y-96000001D02*
X120212219Y-96999999D01*
X128150000Y-91750000D02*
X128150000Y-94600000D01*
X137200000Y-91750000D02*
X128150000Y-91750000D01*
X119850000Y-95362222D02*
X119212221Y-96000001D01*
X125750001Y-96999999D02*
X128150000Y-94600000D01*
X120212219Y-96999999D02*
X120556300Y-96999999D01*
X116062501Y-96000001D02*
X118643700Y-96000001D01*
X126066000Y-99866000D02*
X127100000Y-100900000D01*
X119850000Y-95289700D02*
X119850000Y-95362222D01*
X133800000Y-95700000D02*
X137200000Y-92300000D01*
X126066000Y-99866000D02*
X125783000Y-99583000D01*
X117762500Y-101100000D02*
X119400000Y-101100000D01*
X118849999Y-97710300D02*
X117762500Y-98797799D01*
X118643700Y-96000001D02*
X119212221Y-96000001D01*
X129965020Y-99090020D02*
X132594762Y-99090020D01*
X117762500Y-98797799D02*
X117762500Y-101100000D01*
X132594762Y-99090020D02*
X133800000Y-97884782D01*
X119400000Y-101100000D02*
X121900000Y-103600000D01*
%TO.N,/SDA*%
X123400000Y-98000000D02*
X123200000Y-98200000D01*
X120556300Y-96000001D02*
X124806301Y-91750000D01*
X123200000Y-98200000D02*
X123200000Y-99500000D01*
X124723520Y-99700000D02*
X124840520Y-99583000D01*
X123800000Y-98000000D02*
X123400000Y-98000000D01*
X122600000Y-91750000D02*
X125050000Y-91750000D01*
X124840520Y-99583000D02*
X125217000Y-99583000D01*
X123200000Y-99500000D02*
X123400000Y-99700000D01*
X123400000Y-99700000D02*
X124723520Y-99700000D01*
X124806301Y-91750000D02*
X125050000Y-91750000D01*
%TO.N,/SCL*%
X125050000Y-94600000D02*
X123100000Y-94600000D01*
X125500000Y-99866000D02*
X125500000Y-101200000D01*
X125050000Y-94600000D02*
X123150000Y-96500000D01*
X123150000Y-96500000D02*
X120556300Y-96500000D01*
%TO.N,Net-(JP_BMM1-Pad2)*%
X124423000Y-104900000D02*
X124359989Y-104836989D01*
X124359989Y-100440011D02*
X124934000Y-99866000D01*
X125300000Y-104900000D02*
X124423000Y-104900000D01*
X124359989Y-104836989D02*
X124359989Y-100440011D01*
%TO.N,Net-(JP_BMM2-Pad2)*%
X127300000Y-99800000D02*
X126566000Y-99800000D01*
X120000000Y-104900000D02*
X121900000Y-104900000D01*
X126566000Y-99800000D02*
X126066000Y-99300000D01*
%TO.N,Net-(JP_IMU1-Pad2)*%
X118900000Y-92068728D02*
X118900000Y-91800000D01*
X120350001Y-95289700D02*
X120350001Y-93518729D01*
X120350001Y-93518729D02*
X118900000Y-92068728D01*
%TD*%
M02*
