%TF.GenerationSoftware,KiCad,Pcbnew,(6.0.5)*%
%TF.CreationDate,2022-11-14T02:59:19-05:00*%
%TF.ProjectId,IMU_Board,494d555f-426f-4617-9264-2e6b69636164,rev?*%
%TF.SameCoordinates,Original*%
%TF.FileFunction,Legend,Top*%
%TF.FilePolarity,Positive*%
%FSLAX46Y46*%
G04 Gerber Fmt 4.6, Leading zero omitted, Abs format (unit mm)*
G04 Created by KiCad (PCBNEW (6.0.5)) date 2022-11-14 02:59:19*
%MOMM*%
%LPD*%
G01*
G04 APERTURE LIST*
%ADD10C,0.150000*%
%ADD11C,0.120000*%
%ADD12C,0.100000*%
%ADD13C,0.050000*%
G04 APERTURE END LIST*
D10*
X104241547Y-103542380D02*
X104366547Y-102542380D01*
X104717738Y-103542380D02*
X104842738Y-102542380D01*
X105086785Y-103256666D01*
X105509404Y-102542380D01*
X105384404Y-103542380D01*
X105985595Y-102542380D02*
X105884404Y-103351904D01*
X105920119Y-103447142D01*
X105961785Y-103494761D01*
X106051071Y-103542380D01*
X106241547Y-103542380D01*
X106342738Y-103494761D01*
X106396309Y-103447142D01*
X106455833Y-103351904D01*
X106557023Y-102542380D01*
X106658214Y-103637619D02*
X107420119Y-103637619D01*
X108241547Y-103542380D02*
X107967738Y-103066190D01*
X107670119Y-103542380D02*
X107795119Y-102542380D01*
X108176071Y-102542380D01*
X108265357Y-102590000D01*
X108307023Y-102637619D01*
X108342738Y-102732857D01*
X108324880Y-102875714D01*
X108265357Y-102970952D01*
X108211785Y-103018571D01*
X108110595Y-103066190D01*
X107729642Y-103066190D01*
X108735595Y-103018571D02*
X109068928Y-103018571D01*
X109146309Y-103542380D02*
X108670119Y-103542380D01*
X108795119Y-102542380D01*
X109271309Y-102542380D01*
X109557023Y-102542380D02*
X109765357Y-103542380D01*
X110223690Y-102542380D01*
X110955833Y-103542380D02*
X110384404Y-103542380D01*
X110670119Y-103542380D02*
X110795119Y-102542380D01*
X110682023Y-102685238D01*
X110574880Y-102780476D01*
X110473690Y-102828095D01*
X111396309Y-103447142D02*
X111437976Y-103494761D01*
X111384404Y-103542380D01*
X111342738Y-103494761D01*
X111396309Y-103447142D01*
X111384404Y-103542380D01*
X112384404Y-103542380D02*
X111812976Y-103542380D01*
X112098690Y-103542380D02*
X112223690Y-102542380D01*
X112110595Y-102685238D01*
X112003452Y-102780476D01*
X111902261Y-102828095D01*
X104241547Y-105152380D02*
X104366547Y-104152380D01*
X104717738Y-105152380D02*
X104842738Y-104152380D01*
X105086785Y-104866666D01*
X105509404Y-104152380D01*
X105384404Y-105152380D01*
X105985595Y-104152380D02*
X105884404Y-104961904D01*
X105920119Y-105057142D01*
X105961785Y-105104761D01*
X106051071Y-105152380D01*
X106241547Y-105152380D01*
X106342738Y-105104761D01*
X106396309Y-105057142D01*
X106455833Y-104961904D01*
X106557023Y-104152380D01*
X106920119Y-105057142D02*
X106961785Y-105104761D01*
X106908214Y-105152380D01*
X106866547Y-105104761D01*
X106920119Y-105057142D01*
X106908214Y-105152380D01*
X106985595Y-104533333D02*
X107027261Y-104580952D01*
X106973690Y-104628571D01*
X106932023Y-104580952D01*
X106985595Y-104533333D01*
X106973690Y-104628571D01*
X107634404Y-104676190D02*
X107574880Y-105152380D01*
X107366547Y-104152380D02*
X107634404Y-104676190D01*
X108033214Y-104152380D01*
X108324880Y-104485714D02*
X109051071Y-104771428D01*
X108253452Y-105057142D01*
X109533214Y-105104761D02*
X109527261Y-105152380D01*
X109467738Y-105247619D01*
X109414166Y-105295238D01*
X109985595Y-104152380D02*
X110652261Y-104152380D01*
X109860595Y-105152380D01*
X110527261Y-105152380D01*
X111146309Y-105533333D02*
X111104642Y-105485714D01*
X111027261Y-105342857D01*
X110991547Y-105247619D01*
X110961785Y-105104761D01*
X110943928Y-104866666D01*
X110967738Y-104676190D01*
X111045119Y-104438095D01*
X111110595Y-104295238D01*
X111170119Y-104200000D01*
X111283214Y-104057142D01*
X111336785Y-104009523D01*
X111699880Y-104152380D02*
X111598690Y-104961904D01*
X111634404Y-105057142D01*
X111676071Y-105104761D01*
X111765357Y-105152380D01*
X111955833Y-105152380D01*
X112057023Y-105104761D01*
X112110595Y-105057142D01*
X112170119Y-104961904D01*
X112271309Y-104152380D01*
X112479642Y-105533333D02*
X112533214Y-105485714D01*
X112646309Y-105342857D01*
X112705833Y-105247619D01*
X112771309Y-105104761D01*
X112848690Y-104866666D01*
X112872500Y-104676190D01*
X112854642Y-104438095D01*
X112824880Y-104295238D01*
X112789166Y-104200000D01*
X112711785Y-104057142D01*
X112670119Y-104009523D01*
X104241547Y-106762380D02*
X104366547Y-105762380D01*
X104610595Y-106476666D01*
X105033214Y-105762380D01*
X104908214Y-106762380D01*
X105372500Y-106476666D02*
X105848690Y-106476666D01*
X105241547Y-106762380D02*
X105699880Y-105762380D01*
X105908214Y-106762380D01*
X106884404Y-105810000D02*
X106795119Y-105762380D01*
X106652261Y-105762380D01*
X106503452Y-105810000D01*
X106396309Y-105905238D01*
X106336785Y-106000476D01*
X106265357Y-106190952D01*
X106247500Y-106333809D01*
X106271309Y-106524285D01*
X106307023Y-106619523D01*
X106390357Y-106714761D01*
X106527261Y-106762380D01*
X106622500Y-106762380D01*
X106771309Y-106714761D01*
X106824880Y-106667142D01*
X106866547Y-106333809D01*
X106676071Y-106333809D01*
X107253452Y-106667142D02*
X107295119Y-106714761D01*
X107241547Y-106762380D01*
X107199880Y-106714761D01*
X107253452Y-106667142D01*
X107241547Y-106762380D01*
X107318928Y-106143333D02*
X107360595Y-106190952D01*
X107307023Y-106238571D01*
X107265357Y-106190952D01*
X107318928Y-106143333D01*
X107307023Y-106238571D01*
X107967738Y-106286190D02*
X107908214Y-106762380D01*
X107699880Y-105762380D02*
X107967738Y-106286190D01*
X108366547Y-105762380D01*
X109420119Y-106095714D02*
X108622500Y-106381428D01*
X109348690Y-106667142D01*
X109866547Y-106714761D02*
X109860595Y-106762380D01*
X109801071Y-106857619D01*
X109747500Y-106905238D01*
X110318928Y-105762380D02*
X110985595Y-105762380D01*
X110193928Y-106762380D01*
X110860595Y-106762380D01*
X111479642Y-107143333D02*
X111437976Y-107095714D01*
X111360595Y-106952857D01*
X111324880Y-106857619D01*
X111295119Y-106714761D01*
X111277261Y-106476666D01*
X111301071Y-106286190D01*
X111378452Y-106048095D01*
X111443928Y-105905238D01*
X111503452Y-105810000D01*
X111616547Y-105667142D01*
X111670119Y-105619523D01*
X111908214Y-106762380D02*
X112033214Y-105762380D01*
X112271309Y-105762380D01*
X112408214Y-105810000D01*
X112491547Y-105905238D01*
X112527261Y-106000476D01*
X112551071Y-106190952D01*
X112533214Y-106333809D01*
X112461785Y-106524285D01*
X112402261Y-106619523D01*
X112295119Y-106714761D01*
X112146309Y-106762380D01*
X111908214Y-106762380D01*
X112765357Y-107143333D02*
X112818928Y-107095714D01*
X112932023Y-106952857D01*
X112991547Y-106857619D01*
X113057023Y-106714761D01*
X113134404Y-106476666D01*
X113158214Y-106286190D01*
X113140357Y-106048095D01*
X113110595Y-105905238D01*
X113074880Y-105810000D01*
X112997500Y-105667142D01*
X112955833Y-105619523D01*
X139335595Y-99822380D02*
X139335595Y-98822380D01*
X139668928Y-99536666D01*
X140002261Y-98822380D01*
X140002261Y-99822380D01*
X140430833Y-99536666D02*
X140907023Y-99536666D01*
X140335595Y-99822380D02*
X140668928Y-98822380D01*
X141002261Y-99822380D01*
X141859404Y-98870000D02*
X141764166Y-98822380D01*
X141621309Y-98822380D01*
X141478452Y-98870000D01*
X141383214Y-98965238D01*
X141335595Y-99060476D01*
X141287976Y-99250952D01*
X141287976Y-99393809D01*
X141335595Y-99584285D01*
X141383214Y-99679523D01*
X141478452Y-99774761D01*
X141621309Y-99822380D01*
X141716547Y-99822380D01*
X141859404Y-99774761D01*
X141907023Y-99727142D01*
X141907023Y-99393809D01*
X141716547Y-99393809D01*
X142097500Y-99917619D02*
X142859404Y-99917619D01*
X143097500Y-99822380D02*
X143097500Y-98822380D01*
X143573690Y-99822380D02*
X143573690Y-98822380D01*
X144145119Y-99822380D01*
X144145119Y-98822380D01*
X144478452Y-98822380D02*
X145049880Y-98822380D01*
X144764166Y-99822380D02*
X144764166Y-98822380D01*
X139335595Y-97282380D02*
X139335595Y-96282380D01*
X139668928Y-96996666D01*
X140002261Y-96282380D01*
X140002261Y-97282380D01*
X140430833Y-96996666D02*
X140907023Y-96996666D01*
X140335595Y-97282380D02*
X140668928Y-96282380D01*
X141002261Y-97282380D01*
X141859404Y-96330000D02*
X141764166Y-96282380D01*
X141621309Y-96282380D01*
X141478452Y-96330000D01*
X141383214Y-96425238D01*
X141335595Y-96520476D01*
X141287976Y-96710952D01*
X141287976Y-96853809D01*
X141335595Y-97044285D01*
X141383214Y-97139523D01*
X141478452Y-97234761D01*
X141621309Y-97282380D01*
X141716547Y-97282380D01*
X141859404Y-97234761D01*
X141907023Y-97187142D01*
X141907023Y-96853809D01*
X141716547Y-96853809D01*
X142097500Y-97377619D02*
X142859404Y-97377619D01*
X143097500Y-97282380D02*
X143097500Y-96282380D01*
X143335595Y-96282380D01*
X143478452Y-96330000D01*
X143573690Y-96425238D01*
X143621309Y-96520476D01*
X143668928Y-96710952D01*
X143668928Y-96853809D01*
X143621309Y-97044285D01*
X143573690Y-97139523D01*
X143478452Y-97234761D01*
X143335595Y-97282380D01*
X143097500Y-97282380D01*
X144668928Y-97282380D02*
X144335595Y-96806190D01*
X144097500Y-97282380D02*
X144097500Y-96282380D01*
X144478452Y-96282380D01*
X144573690Y-96330000D01*
X144621309Y-96377619D01*
X144668928Y-96472857D01*
X144668928Y-96615714D01*
X144621309Y-96710952D01*
X144573690Y-96758571D01*
X144478452Y-96806190D01*
X144097500Y-96806190D01*
X145097500Y-97282380D02*
X145097500Y-96282380D01*
X145335595Y-96282380D01*
X145478452Y-96330000D01*
X145573690Y-96425238D01*
X145621309Y-96520476D01*
X145668928Y-96710952D01*
X145668928Y-96853809D01*
X145621309Y-97044285D01*
X145573690Y-97139523D01*
X145478452Y-97234761D01*
X145335595Y-97282380D01*
X145097500Y-97282380D01*
X146287976Y-96806190D02*
X146287976Y-97282380D01*
X145954642Y-96282380D02*
X146287976Y-96806190D01*
X146621309Y-96282380D01*
X139335595Y-102362380D02*
X139335595Y-101362380D01*
X139811785Y-102362380D02*
X139811785Y-101362380D01*
X140145119Y-102076666D01*
X140478452Y-101362380D01*
X140478452Y-102362380D01*
X140954642Y-101362380D02*
X140954642Y-102171904D01*
X141002261Y-102267142D01*
X141049880Y-102314761D01*
X141145119Y-102362380D01*
X141335595Y-102362380D01*
X141430833Y-102314761D01*
X141478452Y-102267142D01*
X141526071Y-102171904D01*
X141526071Y-101362380D01*
X141764166Y-102457619D02*
X142526071Y-102457619D01*
X142764166Y-102362380D02*
X142764166Y-101362380D01*
X143240357Y-102362380D02*
X143240357Y-101362380D01*
X143811785Y-102362380D01*
X143811785Y-101362380D01*
X144145119Y-101362380D02*
X144716547Y-101362380D01*
X144430833Y-102362380D02*
X144430833Y-101362380D01*
X145573690Y-102362380D02*
X145002261Y-102362380D01*
X145287976Y-102362380D02*
X145287976Y-101362380D01*
X145192738Y-101505238D01*
X145097500Y-101600476D01*
X145002261Y-101648095D01*
X139859404Y-93790000D02*
X139764166Y-93742380D01*
X139621309Y-93742380D01*
X139478452Y-93790000D01*
X139383214Y-93885238D01*
X139335595Y-93980476D01*
X139287976Y-94170952D01*
X139287976Y-94313809D01*
X139335595Y-94504285D01*
X139383214Y-94599523D01*
X139478452Y-94694761D01*
X139621309Y-94742380D01*
X139716547Y-94742380D01*
X139859404Y-94694761D01*
X139907023Y-94647142D01*
X139907023Y-94313809D01*
X139716547Y-94313809D01*
X140335595Y-94742380D02*
X140335595Y-93742380D01*
X140907023Y-94742380D01*
X140907023Y-93742380D01*
X141383214Y-94742380D02*
X141383214Y-93742380D01*
X141621309Y-93742380D01*
X141764166Y-93790000D01*
X141859404Y-93885238D01*
X141907023Y-93980476D01*
X141954642Y-94170952D01*
X141954642Y-94313809D01*
X141907023Y-94504285D01*
X141859404Y-94599523D01*
X141764166Y-94694761D01*
X141621309Y-94742380D01*
X141383214Y-94742380D01*
X139335595Y-104902380D02*
X139335595Y-103902380D01*
X139811785Y-104902380D02*
X139811785Y-103902380D01*
X140145119Y-104616666D01*
X140478452Y-103902380D01*
X140478452Y-104902380D01*
X140954642Y-103902380D02*
X140954642Y-104711904D01*
X141002261Y-104807142D01*
X141049880Y-104854761D01*
X141145119Y-104902380D01*
X141335595Y-104902380D01*
X141430833Y-104854761D01*
X141478452Y-104807142D01*
X141526071Y-104711904D01*
X141526071Y-103902380D01*
X141764166Y-104997619D02*
X142526071Y-104997619D01*
X142764166Y-104902380D02*
X142764166Y-103902380D01*
X143240357Y-104902380D02*
X143240357Y-103902380D01*
X143811785Y-104902380D01*
X143811785Y-103902380D01*
X144145119Y-103902380D02*
X144716547Y-103902380D01*
X144430833Y-104902380D02*
X144430833Y-103902380D01*
X145002261Y-103997619D02*
X145049880Y-103950000D01*
X145145119Y-103902380D01*
X145383214Y-103902380D01*
X145478452Y-103950000D01*
X145526071Y-103997619D01*
X145573690Y-104092857D01*
X145573690Y-104188095D01*
X145526071Y-104330952D01*
X144954642Y-104902380D01*
X145573690Y-104902380D01*
X139240357Y-91202380D02*
X139859404Y-91202380D01*
X139526071Y-91583333D01*
X139668928Y-91583333D01*
X139764166Y-91630952D01*
X139811785Y-91678571D01*
X139859404Y-91773809D01*
X139859404Y-92011904D01*
X139811785Y-92107142D01*
X139764166Y-92154761D01*
X139668928Y-92202380D01*
X139383214Y-92202380D01*
X139287976Y-92154761D01*
X139240357Y-92107142D01*
X140287976Y-92107142D02*
X140335595Y-92154761D01*
X140287976Y-92202380D01*
X140240357Y-92154761D01*
X140287976Y-92107142D01*
X140287976Y-92202380D01*
X140668928Y-91202380D02*
X141287976Y-91202380D01*
X140954642Y-91583333D01*
X141097500Y-91583333D01*
X141192738Y-91630952D01*
X141240357Y-91678571D01*
X141287976Y-91773809D01*
X141287976Y-92011904D01*
X141240357Y-92107142D01*
X141192738Y-92154761D01*
X141097500Y-92202380D01*
X140811785Y-92202380D01*
X140716547Y-92154761D01*
X140668928Y-92107142D01*
X141573690Y-91202380D02*
X141907023Y-92202380D01*
X142240357Y-91202380D01*
%TO.C,*%
%TO.C,U1*%
X116652380Y-94200000D02*
X116890476Y-94200000D01*
X116795238Y-94438095D02*
X116890476Y-94200000D01*
X116795238Y-93961904D01*
X117080952Y-94342857D02*
X116890476Y-94200000D01*
X117080952Y-94057142D01*
%TO.C,R7*%
X119833333Y-96832380D02*
X119500000Y-96356190D01*
X119261904Y-96832380D02*
X119261904Y-95832380D01*
X119642857Y-95832380D01*
X119738095Y-95880000D01*
X119785714Y-95927619D01*
X119833333Y-96022857D01*
X119833333Y-96165714D01*
X119785714Y-96260952D01*
X119738095Y-96308571D01*
X119642857Y-96356190D01*
X119261904Y-96356190D01*
X120166666Y-95832380D02*
X120833333Y-95832380D01*
X120404761Y-96832380D01*
%TO.C,R6*%
X125333333Y-109752380D02*
X125000000Y-109276190D01*
X124761904Y-109752380D02*
X124761904Y-108752380D01*
X125142857Y-108752380D01*
X125238095Y-108800000D01*
X125285714Y-108847619D01*
X125333333Y-108942857D01*
X125333333Y-109085714D01*
X125285714Y-109180952D01*
X125238095Y-109228571D01*
X125142857Y-109276190D01*
X124761904Y-109276190D01*
X126190476Y-108752380D02*
X126000000Y-108752380D01*
X125904761Y-108800000D01*
X125857142Y-108847619D01*
X125761904Y-108990476D01*
X125714285Y-109180952D01*
X125714285Y-109561904D01*
X125761904Y-109657142D01*
X125809523Y-109704761D01*
X125904761Y-109752380D01*
X126095238Y-109752380D01*
X126190476Y-109704761D01*
X126238095Y-109657142D01*
X126285714Y-109561904D01*
X126285714Y-109323809D01*
X126238095Y-109228571D01*
X126190476Y-109180952D01*
X126095238Y-109133333D01*
X125904761Y-109133333D01*
X125809523Y-109180952D01*
X125761904Y-109228571D01*
X125714285Y-109323809D01*
%TO.C,R5*%
X128133333Y-109852380D02*
X127800000Y-109376190D01*
X127561904Y-109852380D02*
X127561904Y-108852380D01*
X127942857Y-108852380D01*
X128038095Y-108900000D01*
X128085714Y-108947619D01*
X128133333Y-109042857D01*
X128133333Y-109185714D01*
X128085714Y-109280952D01*
X128038095Y-109328571D01*
X127942857Y-109376190D01*
X127561904Y-109376190D01*
X129038095Y-108852380D02*
X128561904Y-108852380D01*
X128514285Y-109328571D01*
X128561904Y-109280952D01*
X128657142Y-109233333D01*
X128895238Y-109233333D01*
X128990476Y-109280952D01*
X129038095Y-109328571D01*
X129085714Y-109423809D01*
X129085714Y-109661904D01*
X129038095Y-109757142D01*
X128990476Y-109804761D01*
X128895238Y-109852380D01*
X128657142Y-109852380D01*
X128561904Y-109804761D01*
X128514285Y-109757142D01*
%TO.C,R4*%
X122733333Y-109752380D02*
X122400000Y-109276190D01*
X122161904Y-109752380D02*
X122161904Y-108752380D01*
X122542857Y-108752380D01*
X122638095Y-108800000D01*
X122685714Y-108847619D01*
X122733333Y-108942857D01*
X122733333Y-109085714D01*
X122685714Y-109180952D01*
X122638095Y-109228571D01*
X122542857Y-109276190D01*
X122161904Y-109276190D01*
X123590476Y-109085714D02*
X123590476Y-109752380D01*
X123352380Y-108704761D02*
X123114285Y-109419047D01*
X123733333Y-109419047D01*
%TO.C,R3*%
X118422381Y-91516666D02*
X117946191Y-91850000D01*
X118422381Y-92088095D02*
X117422381Y-92088095D01*
X117422381Y-91707142D01*
X117470001Y-91611904D01*
X117517620Y-91564285D01*
X117612858Y-91516666D01*
X117755715Y-91516666D01*
X117850953Y-91564285D01*
X117898572Y-91611904D01*
X117946191Y-91707142D01*
X117946191Y-92088095D01*
X117422381Y-91183333D02*
X117422381Y-90564285D01*
X117803334Y-90897619D01*
X117803334Y-90754761D01*
X117850953Y-90659523D01*
X117898572Y-90611904D01*
X117993810Y-90564285D01*
X118231905Y-90564285D01*
X118327143Y-90611904D01*
X118374762Y-90659523D01*
X118422381Y-90754761D01*
X118422381Y-91040476D01*
X118374762Y-91135714D01*
X118327143Y-91183333D01*
%TO.C,JP_BMM1*%
X114642857Y-109452380D02*
X114642857Y-110166666D01*
X114595238Y-110309523D01*
X114500000Y-110404761D01*
X114357142Y-110452380D01*
X114261904Y-110452380D01*
X115119047Y-110452380D02*
X115119047Y-109452380D01*
X115500000Y-109452380D01*
X115595238Y-109500000D01*
X115642857Y-109547619D01*
X115690476Y-109642857D01*
X115690476Y-109785714D01*
X115642857Y-109880952D01*
X115595238Y-109928571D01*
X115500000Y-109976190D01*
X115119047Y-109976190D01*
X115880952Y-110547619D02*
X116642857Y-110547619D01*
X117214285Y-109928571D02*
X117357142Y-109976190D01*
X117404761Y-110023809D01*
X117452380Y-110119047D01*
X117452380Y-110261904D01*
X117404761Y-110357142D01*
X117357142Y-110404761D01*
X117261904Y-110452380D01*
X116880952Y-110452380D01*
X116880952Y-109452380D01*
X117214285Y-109452380D01*
X117309523Y-109500000D01*
X117357142Y-109547619D01*
X117404761Y-109642857D01*
X117404761Y-109738095D01*
X117357142Y-109833333D01*
X117309523Y-109880952D01*
X117214285Y-109928571D01*
X116880952Y-109928571D01*
X117880952Y-110452380D02*
X117880952Y-109452380D01*
X118214285Y-110166666D01*
X118547619Y-109452380D01*
X118547619Y-110452380D01*
X119023809Y-110452380D02*
X119023809Y-109452380D01*
X119357142Y-110166666D01*
X119690476Y-109452380D01*
X119690476Y-110452380D01*
X120690476Y-110452380D02*
X120119047Y-110452380D01*
X120404761Y-110452380D02*
X120404761Y-109452380D01*
X120309523Y-109595238D01*
X120214285Y-109690476D01*
X120119047Y-109738095D01*
%TO.C,*%
%TO.C,JP_BMM2*%
X130642857Y-109452380D02*
X130642857Y-110166666D01*
X130595238Y-110309523D01*
X130500000Y-110404761D01*
X130357142Y-110452380D01*
X130261904Y-110452380D01*
X131119047Y-110452380D02*
X131119047Y-109452380D01*
X131500000Y-109452380D01*
X131595238Y-109500000D01*
X131642857Y-109547619D01*
X131690476Y-109642857D01*
X131690476Y-109785714D01*
X131642857Y-109880952D01*
X131595238Y-109928571D01*
X131500000Y-109976190D01*
X131119047Y-109976190D01*
X131880952Y-110547619D02*
X132642857Y-110547619D01*
X133214285Y-109928571D02*
X133357142Y-109976190D01*
X133404761Y-110023809D01*
X133452380Y-110119047D01*
X133452380Y-110261904D01*
X133404761Y-110357142D01*
X133357142Y-110404761D01*
X133261904Y-110452380D01*
X132880952Y-110452380D01*
X132880952Y-109452380D01*
X133214285Y-109452380D01*
X133309523Y-109500000D01*
X133357142Y-109547619D01*
X133404761Y-109642857D01*
X133404761Y-109738095D01*
X133357142Y-109833333D01*
X133309523Y-109880952D01*
X133214285Y-109928571D01*
X132880952Y-109928571D01*
X133880952Y-110452380D02*
X133880952Y-109452380D01*
X134214285Y-110166666D01*
X134547619Y-109452380D01*
X134547619Y-110452380D01*
X135023809Y-110452380D02*
X135023809Y-109452380D01*
X135357142Y-110166666D01*
X135690476Y-109452380D01*
X135690476Y-110452380D01*
X136119047Y-109547619D02*
X136166666Y-109500000D01*
X136261904Y-109452380D01*
X136500000Y-109452380D01*
X136595238Y-109500000D01*
X136642857Y-109547619D01*
X136690476Y-109642857D01*
X136690476Y-109738095D01*
X136642857Y-109880952D01*
X136071428Y-110452380D01*
X136690476Y-110452380D01*
%TO.C,C3*%
X130233333Y-103157142D02*
X130185714Y-103204761D01*
X130042857Y-103252380D01*
X129947619Y-103252380D01*
X129804761Y-103204761D01*
X129709523Y-103109523D01*
X129661904Y-103014285D01*
X129614285Y-102823809D01*
X129614285Y-102680952D01*
X129661904Y-102490476D01*
X129709523Y-102395238D01*
X129804761Y-102300000D01*
X129947619Y-102252380D01*
X130042857Y-102252380D01*
X130185714Y-102300000D01*
X130233333Y-102347619D01*
X130566666Y-102252380D02*
X131185714Y-102252380D01*
X130852380Y-102633333D01*
X130995238Y-102633333D01*
X131090476Y-102680952D01*
X131138095Y-102728571D01*
X131185714Y-102823809D01*
X131185714Y-103061904D01*
X131138095Y-103157142D01*
X131090476Y-103204761D01*
X130995238Y-103252380D01*
X130709523Y-103252380D01*
X130614285Y-103204761D01*
X130566666Y-103157142D01*
%TO.C,J1*%
X136866666Y-106232380D02*
X136866666Y-106946666D01*
X136819047Y-107089523D01*
X136723809Y-107184761D01*
X136580952Y-107232380D01*
X136485714Y-107232380D01*
X137866666Y-107232380D02*
X137295238Y-107232380D01*
X137580952Y-107232380D02*
X137580952Y-106232380D01*
X137485714Y-106375238D01*
X137390476Y-106470476D01*
X137295238Y-106518095D01*
%TO.C,C4*%
X114770833Y-102957142D02*
X114723214Y-103004761D01*
X114580357Y-103052380D01*
X114485119Y-103052380D01*
X114342261Y-103004761D01*
X114247023Y-102909523D01*
X114199404Y-102814285D01*
X114151785Y-102623809D01*
X114151785Y-102480952D01*
X114199404Y-102290476D01*
X114247023Y-102195238D01*
X114342261Y-102100000D01*
X114485119Y-102052380D01*
X114580357Y-102052380D01*
X114723214Y-102100000D01*
X114770833Y-102147619D01*
X115627976Y-102385714D02*
X115627976Y-103052380D01*
X115389880Y-102004761D02*
X115151785Y-102719047D01*
X115770833Y-102719047D01*
%TO.C,JP_IMU1*%
X107952380Y-94047619D02*
X108666666Y-94047619D01*
X108809523Y-94095238D01*
X108904761Y-94190476D01*
X108952380Y-94333333D01*
X108952380Y-94428571D01*
X108952380Y-93571428D02*
X107952380Y-93571428D01*
X107952380Y-93190476D01*
X108000000Y-93095238D01*
X108047619Y-93047619D01*
X108142857Y-93000000D01*
X108285714Y-93000000D01*
X108380952Y-93047619D01*
X108428571Y-93095238D01*
X108476190Y-93190476D01*
X108476190Y-93571428D01*
X109047619Y-92809523D02*
X109047619Y-92047619D01*
X108952380Y-91809523D02*
X107952380Y-91809523D01*
X108952380Y-91333333D02*
X107952380Y-91333333D01*
X108666666Y-91000000D01*
X107952380Y-90666666D01*
X108952380Y-90666666D01*
X107952380Y-90190476D02*
X108761904Y-90190476D01*
X108857142Y-90142857D01*
X108904761Y-90095238D01*
X108952380Y-90000000D01*
X108952380Y-89809523D01*
X108904761Y-89714285D01*
X108857142Y-89666666D01*
X108761904Y-89619047D01*
X107952380Y-89619047D01*
X108952380Y-88619047D02*
X108952380Y-89190476D01*
X108952380Y-88904761D02*
X107952380Y-88904761D01*
X108095238Y-89000000D01*
X108190476Y-89095238D01*
X108238095Y-89190476D01*
%TO.C,R2*%
X126433333Y-96872380D02*
X126100000Y-96396190D01*
X125861904Y-96872380D02*
X125861904Y-95872380D01*
X126242857Y-95872380D01*
X126338095Y-95920000D01*
X126385714Y-95967619D01*
X126433333Y-96062857D01*
X126433333Y-96205714D01*
X126385714Y-96300952D01*
X126338095Y-96348571D01*
X126242857Y-96396190D01*
X125861904Y-96396190D01*
X126814285Y-95967619D02*
X126861904Y-95920000D01*
X126957142Y-95872380D01*
X127195238Y-95872380D01*
X127290476Y-95920000D01*
X127338095Y-95967619D01*
X127385714Y-96062857D01*
X127385714Y-96158095D01*
X127338095Y-96300952D01*
X126766666Y-96872380D01*
X127385714Y-96872380D01*
%TO.C,R1*%
X126533333Y-90352380D02*
X126200000Y-89876190D01*
X125961904Y-90352380D02*
X125961904Y-89352380D01*
X126342857Y-89352380D01*
X126438095Y-89400000D01*
X126485714Y-89447619D01*
X126533333Y-89542857D01*
X126533333Y-89685714D01*
X126485714Y-89780952D01*
X126438095Y-89828571D01*
X126342857Y-89876190D01*
X125961904Y-89876190D01*
X127485714Y-90352380D02*
X126914285Y-90352380D01*
X127200000Y-90352380D02*
X127200000Y-89352380D01*
X127104761Y-89495238D01*
X127009523Y-89590476D01*
X126914285Y-89638095D01*
%TO.C,C2*%
X109207142Y-96566666D02*
X109254761Y-96614285D01*
X109302380Y-96757142D01*
X109302380Y-96852380D01*
X109254761Y-96995238D01*
X109159523Y-97090476D01*
X109064285Y-97138095D01*
X108873809Y-97185714D01*
X108730952Y-97185714D01*
X108540476Y-97138095D01*
X108445238Y-97090476D01*
X108350000Y-96995238D01*
X108302380Y-96852380D01*
X108302380Y-96757142D01*
X108350000Y-96614285D01*
X108397619Y-96566666D01*
X108397619Y-96185714D02*
X108350000Y-96138095D01*
X108302380Y-96042857D01*
X108302380Y-95804761D01*
X108350000Y-95709523D01*
X108397619Y-95661904D01*
X108492857Y-95614285D01*
X108588095Y-95614285D01*
X108730952Y-95661904D01*
X109302380Y-96233333D01*
X109302380Y-95614285D01*
%TO.C,U3*%
X126900000Y-100052380D02*
X126900000Y-100290476D01*
X126661904Y-100195238D02*
X126900000Y-100290476D01*
X127138095Y-100195238D01*
X126757142Y-100480952D02*
X126900000Y-100290476D01*
X127042857Y-100480952D01*
%TO.C,C1*%
X130270833Y-96507142D02*
X130223214Y-96554761D01*
X130080357Y-96602380D01*
X129985119Y-96602380D01*
X129842261Y-96554761D01*
X129747023Y-96459523D01*
X129699404Y-96364285D01*
X129651785Y-96173809D01*
X129651785Y-96030952D01*
X129699404Y-95840476D01*
X129747023Y-95745238D01*
X129842261Y-95650000D01*
X129985119Y-95602380D01*
X130080357Y-95602380D01*
X130223214Y-95650000D01*
X130270833Y-95697619D01*
X131223214Y-96602380D02*
X130651785Y-96602380D01*
X130937500Y-96602380D02*
X130937500Y-95602380D01*
X130842261Y-95745238D01*
X130747023Y-95840476D01*
X130651785Y-95888095D01*
D11*
%TO.C,U1*%
X114292985Y-94823600D02*
X114077600Y-94823600D01*
X116707015Y-98176400D02*
X116922400Y-98176400D01*
X116922400Y-94823600D02*
X116707015Y-94823600D01*
X114077600Y-94823600D02*
X114077600Y-95542987D01*
X114077600Y-97457013D02*
X114077600Y-98176400D01*
X116922400Y-98176400D02*
X116922400Y-97457013D01*
X116922400Y-95542987D02*
X116922400Y-94823600D01*
X114077600Y-98176400D02*
X114292985Y-98176400D01*
G36*
X115940500Y-98455800D02*
G01*
X115559499Y-98455800D01*
X115559499Y-98201800D01*
X115940500Y-98201800D01*
X115940500Y-98455800D01*
G37*
D12*
X115940500Y-98455800D02*
X115559499Y-98455800D01*
X115559499Y-98201800D01*
X115940500Y-98201800D01*
X115940500Y-98455800D01*
D11*
%TO.C,R7*%
X119272936Y-97290000D02*
X120727064Y-97290000D01*
X119272936Y-99110000D02*
X120727064Y-99110000D01*
%TO.C,R6*%
X126510000Y-106627064D02*
X126510000Y-105172936D01*
X124690000Y-106627064D02*
X124690000Y-105172936D01*
%TO.C,R5*%
X127390000Y-105172936D02*
X127390000Y-106627064D01*
X129210000Y-105172936D02*
X129210000Y-106627064D01*
%TO.C,R4*%
X121990000Y-106627064D02*
X121990000Y-105172936D01*
X123810000Y-106627064D02*
X123810000Y-105172936D01*
%TO.C,R3*%
X117060001Y-90622936D02*
X117060001Y-92077064D01*
X115240001Y-90622936D02*
X115240001Y-92077064D01*
%TO.C,JP_BMM1*%
X118100000Y-104800000D02*
X117800000Y-105100000D01*
X118300000Y-107400000D02*
X118300000Y-104600000D01*
X119000000Y-103950000D02*
X119600000Y-103950000D01*
X117800000Y-104500000D02*
X117800000Y-105100000D01*
X118100000Y-104800000D02*
X117800000Y-104500000D01*
X120300000Y-104600000D02*
X120300000Y-107400000D01*
X119600000Y-108050000D02*
X119000000Y-108050000D01*
X120300000Y-104650000D02*
G75*
G03*
X119600000Y-103950000I-699999J1D01*
G01*
X118300000Y-107350000D02*
G75*
G03*
X119000000Y-108050000I700000J0D01*
G01*
X119600000Y-108050000D02*
G75*
G03*
X120300000Y-107350000I0J700000D01*
G01*
X119000000Y-103950000D02*
G75*
G03*
X118300000Y-104650000I-1J-699999D01*
G01*
%TO.C,JP_BMM2*%
X131857500Y-108050000D02*
G75*
G03*
X132557500Y-107350000I1J699999D01*
G01*
X131257500Y-103950000D02*
G75*
G03*
X130557500Y-104650000I0J-700000D01*
G01*
X132557500Y-104650000D02*
G75*
G03*
X131857500Y-103950000I-700000J0D01*
G01*
X130557500Y-107350000D02*
G75*
G03*
X131257500Y-108050000I699999J-1D01*
G01*
X132757500Y-107200000D02*
X133057500Y-106900000D01*
X133057500Y-107500000D02*
X133057500Y-106900000D01*
X131257500Y-103950000D02*
X131857500Y-103950000D01*
X132757500Y-107200000D02*
X133057500Y-107500000D01*
X132557500Y-104600000D02*
X132557500Y-107400000D01*
X130557500Y-107400000D02*
X130557500Y-104600000D01*
X131857500Y-108050000D02*
X131257500Y-108050000D01*
%TO.C,C3*%
X129688748Y-101810000D02*
X131111252Y-101810000D01*
X129688748Y-99990000D02*
X131111252Y-99990000D01*
%TO.C,J1*%
X135870000Y-103180000D02*
X135870000Y-90420000D01*
X138530000Y-103180000D02*
X135870000Y-103180000D01*
X138530000Y-90420000D02*
X135870000Y-90420000D01*
X138530000Y-103180000D02*
X138530000Y-90420000D01*
X138530000Y-104450000D02*
X138530000Y-105780000D01*
X138530000Y-105780000D02*
X137200000Y-105780000D01*
%TO.C,C4*%
X112748752Y-101410000D02*
X111326248Y-101410000D01*
X112748752Y-99590000D02*
X111326248Y-99590000D01*
%TO.C,JP_IMU1*%
X111942500Y-91700000D02*
X112242500Y-92000000D01*
X109742500Y-91900000D02*
X109742500Y-89100000D01*
X111042500Y-92550000D02*
X110442500Y-92550000D01*
X112242500Y-92000000D02*
X112242500Y-91400000D01*
X110442500Y-88450000D02*
X111042500Y-88450000D01*
X111742500Y-89100000D02*
X111742500Y-91900000D01*
X111942500Y-91700000D02*
X112242500Y-91400000D01*
X111042500Y-92550000D02*
G75*
G03*
X111742500Y-91850000I1J699999D01*
G01*
X110442500Y-88450000D02*
G75*
G03*
X109742500Y-89150000I0J-700000D01*
G01*
X111742500Y-89150000D02*
G75*
G03*
X111042500Y-88450000I-700000J0D01*
G01*
X109742500Y-91850000D02*
G75*
G03*
X110442500Y-92550000I699999J-1D01*
G01*
%TO.C,R2*%
X127327064Y-95510000D02*
X125872936Y-95510000D01*
X127327064Y-93690000D02*
X125872936Y-93690000D01*
%TO.C,R1*%
X127327064Y-90840000D02*
X125872936Y-90840000D01*
X127327064Y-92660000D02*
X125872936Y-92660000D01*
%TO.C,C2*%
X109790000Y-97111252D02*
X109790000Y-95688748D01*
X111610000Y-97111252D02*
X111610000Y-95688748D01*
D13*
%TO.C,U3*%
X124431000Y-98231000D02*
X126499000Y-98231000D01*
X126499000Y-98231000D02*
X126499000Y-100299000D01*
X126499000Y-100299000D02*
X124431000Y-100299000D01*
X124431000Y-100299000D02*
X124431000Y-98231000D01*
D11*
%TO.C,C1*%
X129726248Y-98910000D02*
X131148752Y-98910000D01*
X129726248Y-97090000D02*
X131148752Y-97090000D01*
%TD*%
M02*
